G04 Layer: BottomLayer*
G04 EasyEDA v6.5.51, 2026-01-23 20:44:13*
G04 9b21f2c40fdd485a9a18e9c23a84d7e9,fbdf34f9d0754eb9a98e5c232fff75f3,10*
G04 Gerber Generator version 0.2*
G04 Scale: 100 percent, Rotated: No, Reflected: No *
G04 Dimensions in millimeters *
G04 leading zeros omitted , absolute positions ,4 integer and 5 decimal *
%FSLAX45Y45*%
%MOMM*%

%ADD10C,1.4000*%
%ADD11C,0.2000*%
%ADD12C,0.5000*%
%ADD13C,0.6100*%
%ADD14C,0.5000*%
%ADD15C,0.6000*%
%ADD16C,0.0161*%

%LPD*%
D10*
X2486990Y3642893D02*
G01*
X1718157Y3642893D01*
X1056233Y2980969D01*
X1056233Y1501241D01*
X1095375Y1462100D01*
X765276Y2406472D02*
G01*
X715086Y2406472D01*
X617372Y2308758D01*
X617372Y1430401D01*
X966952Y1080820D01*
X966952Y1040231D01*
X1155039Y852144D01*
X2701823Y852144D01*
X3119627Y1269949D01*
X3364153Y1269949D01*
D11*
X406400Y1866897D02*
G01*
X279400Y1739897D01*
X279400Y469900D01*
X419100Y330200D01*
X469900Y330200D01*
D12*
X393700Y1371597D02*
G01*
X393700Y749297D01*
X482600Y660397D01*
D10*
X2730398Y2151405D02*
G01*
X2730398Y2263470D01*
X2577388Y2416479D01*
X1989074Y2416479D01*
D11*
X1892300Y3073400D02*
G01*
X2044700Y2921000D01*
X2044700Y2565400D01*
D10*
X765276Y2406472D02*
G01*
X803503Y2444699D01*
X803503Y3127247D01*
X1244955Y3568700D01*
D12*
X2781300Y736600D02*
G01*
X2947540Y736600D01*
X3139640Y928700D01*
D11*
X1859762Y1475790D02*
G01*
X1886305Y1475790D01*
X2113178Y1702663D01*
X2113178Y1999335D01*
X2249957Y2136114D01*
X3434105Y823696D02*
G01*
X3217214Y606805D01*
X3217214Y371043D01*
D12*
X678357Y2755417D02*
G01*
X491769Y2568829D01*
X491769Y1341424D01*
X811301Y1021892D01*
X1094765Y1102207D02*
G01*
X1868576Y1102207D01*
X2030679Y1264310D01*
D11*
X2525798Y2069084D02*
G01*
X2692400Y1902482D01*
X2692400Y1778000D01*
X3416096Y2826867D02*
G01*
X3219297Y2630068D01*
X3219297Y2058974D01*
X2955670Y1795348D01*
X3530295Y1513357D02*
G01*
X3483838Y1466900D01*
X3075533Y1466900D01*
D10*
X2977972Y2486990D02*
G01*
X2977972Y2952038D01*
X2977972Y2952038D02*
G01*
X2977972Y3151911D01*
X2486990Y3642893D01*
X3463874Y641096D02*
G01*
X3655440Y832662D01*
X3655440Y2768168D01*
X3471570Y2952038D01*
X2977972Y2952038D01*
X2272741Y1786458D02*
G01*
X2272741Y1185748D01*
X2432481Y1026007D01*
X3460622Y2700756D02*
G01*
X3460622Y2054148D01*
X2432481Y1026007D01*
X2272741Y1786458D02*
G01*
X2375103Y1888820D01*
X2375103Y2095372D01*
X2509824Y2230094D01*
D12*
X1818208Y1742795D02*
G01*
X1863902Y1788490D01*
X1863902Y2309825D01*
D10*
X1989074Y2416479D02*
G01*
X1989074Y1736648D01*
X1870075Y1617649D01*
X1766341Y1617649D01*
X1693062Y1690928D01*
X1693062Y1690928D02*
G01*
X1693062Y1881200D01*
X1738756Y2899410D02*
G01*
X1233500Y2899410D01*
X1989074Y2416479D02*
G01*
X1738756Y2666796D01*
X1738756Y2899410D01*
X1738756Y2899410D02*
G01*
X1738756Y3393465D01*
X1693062Y1690928D02*
G01*
X1285189Y1283055D01*
X1026388Y1283055D01*
X787552Y1521891D01*
X787552Y2233599D01*
D13*
G01*
X1244955Y3568700D03*
G01*
X765276Y2406472D03*
G01*
X3364153Y1269949D03*
G01*
X787552Y2233599D03*
G01*
X1233500Y2899410D03*
G01*
X2730398Y2151405D03*
G01*
X1738756Y3393465D03*
G01*
X1693062Y1881200D03*
D14*
G01*
X1818208Y1742795D03*
G01*
X1863902Y2309825D03*
D13*
G01*
X2509824Y2230094D03*
G01*
X3460622Y2700756D03*
G01*
X2272741Y1786458D03*
G01*
X2432481Y1026007D03*
G01*
X3463874Y641096D03*
G01*
X1095375Y1462100D03*
G01*
X2977972Y2486990D03*
G01*
X2486990Y3642893D03*
D14*
G01*
X3075533Y1466900D03*
G01*
X3530295Y1513357D03*
G01*
X2955670Y1795348D03*
G01*
X3416096Y2826867D03*
G01*
X2692400Y1778000D03*
G01*
X2525801Y2069084D03*
G01*
X2030679Y1264310D03*
G01*
X1094765Y1102207D03*
G01*
X811301Y1021892D03*
G01*
X678357Y2755417D03*
G01*
X3434105Y823696D03*
G01*
X3217214Y371043D03*
G01*
X2249957Y2136114D03*
G01*
X1859762Y1475790D03*
G01*
X2781294Y736597D03*
G01*
X3139643Y928700D03*
G01*
X2044700Y2565400D03*
G01*
X1892300Y3073400D03*
D15*
G01*
X393700Y1371600D03*
G01*
X482600Y660400D03*
D14*
G01*
X406400Y1866900D03*
D15*
G01*
X469900Y330200D03*
M02*
