G04 Layer: DrillDrawingLayer*
G04 EasyEDA Pro v2.2.45.4, 2026-01-23 22:23:40*
G04 Gerber Generator version 0.3*
G04 Scale: 100 percent, Rotated: No, Reflected: No*
G04 Dimensions in millimeters*
G04 Leading zeros omitted, absolute positions, 4 integers and 5 decimals*
G04 Generated by one-click*
%FSLAX45Y45*%
%MOMM*%
%AMIconRect*4,1,4,0.28,-0.28,-0.28,-0.28,-0.28,0.28,0.28,0.28,0.28,-0.28,0*4,0,4,0.233333,-0.233333,0.233333,0.233333,-0.233333,0.233333,-0.233333,-0.233333,0.233333,-0.233333,0*%
%AMIconTriangle*4,1,3,-0.339593,0.240473,0.339593,0.240473,0,-0.37884,-0.339593,0.240473,0*4,0,3,-0.265673,0.19404,0,-0.27342,0.266233,0.19404,-0.265673,0.19404,0*%
%ADD10IconRect*%
%ADD11C,0.616X0.522667*%
%ADD12IconTriangle*%
G75*


G04 Drill Drawing Start*
G54D10*
G01X393700Y1371600D03*
G01X469900Y330200D03*
G01X482600Y660400D03*
G01X1892300Y3073400D03*
G01X2044700Y2565400D03*
G54D11*
G01X765277Y2406472D03*
G01X787552Y2233600D03*
G01X1095375Y1462100D03*
G01X1233500Y2899410D03*
G01X1244956Y3568700D03*
G01X1693062Y1881200D03*
G01X1738757Y3393465D03*
G01X2272741Y1786458D03*
G01X2432482Y1026008D03*
G01X2486990Y3642893D03*
G01X2509825Y2230095D03*
G01X2730398Y2151405D03*
G01X2977972Y2486990D03*
G01X3364154Y1269949D03*
G01X3460623Y2700757D03*
G01X3463874Y641096D03*
G54D12*
G01X406400Y1866900D03*
G01X678358Y2755417D03*
G01X811301Y1021893D03*
G01X1094765Y1102208D03*
G01X1818208Y1742796D03*
G01X1859763Y1475791D03*
G01X1863903Y2309825D03*
G01X2030679Y1264310D03*
G01X2249957Y2136115D03*
G01X2525801Y2069084D03*
G01X2692400Y1778000D03*
G01X2781295Y736597D03*
G01X2955671Y1795348D03*
G01X3075534Y1466901D03*
G01X3139643Y928700D03*
G01X3217215Y371043D03*
G01X3416097Y2826868D03*
G01X3434105Y823697D03*
G01X3530295Y1513357D03*
G04 Drill Drawing End*

M02*

