M48
METRIC,LZ,000.000
;FILE_FORMAT=3:3
;TYPE=PLATED
;Layer: PTH_Through_Via
;EasyEDA v6.5.51, 2026-01-23 20:44:13
;9b21f2c40fdd485a9a18e9c23a84d7e9,fbdf34f9d0754eb9a98e5c232fff75f3,10
;Gerber Generator version 0.2
;Holesize 1 = 0.200 mm
T01C0.200
;Holesize 2 = 0.301 mm
T02C0.301
;Holesize 3 = 0.306 mm
T03C0.306
%
G05
G90
T01
X018182Y017428
X018639Y023098
X030755Y014669
X035303Y015134
X029557Y017953
X034161Y028269
X026924Y017780
X025258Y020691
X020307Y012643
X010948Y011022
X008113Y010219
X006784Y027554
X034341Y008237
X032172Y003710
X022500Y021361
X018598Y014758
X027813Y007366
X031396Y009287
X004064Y018669
T02
X020447Y025654
X018923Y030734
X003937Y013716
X004826Y006604
X004699Y003302
T03
X012450Y035687
X007653Y024065
X033642Y012699
X007876Y022336
X012335Y028994
X027304Y021514
X017388Y033935
X016931Y018812
X025098Y022301
X034606Y027008
X022727Y017865
X024325Y010260
X034639Y006411
X010954Y014621
X029780Y024870
X024870Y036429
M30
