G04 Layer: TopPasteMaskLayer*
G04 EasyEDA v6.5.51, 2026-01-23 20:44:13*
G04 9b21f2c40fdd485a9a18e9c23a84d7e9,fbdf34f9d0754eb9a98e5c232fff75f3,10*
G04 Gerber Generator version 0.2*
G04 Scale: 100 percent, Rotated: No, Reflected: No *
G04 Dimensions in millimeters *
G04 leading zeros omitted , absolute positions ,4 integer and 5 decimal *
%FSLAX45Y45*%
%MOMM*%

%ADD10C,1.0000*%
%ADD11R,2.2000X2.2000*%
%ADD12O,2.54X2.54*%
%ADD13C,2.5400*%
%ADD14R,2.0000X2.0000*%
%ADD15R,1.2000X3.5000*%
%ADD16R,0.7000X1.2500*%
%ADD17R,0.0140X1.2500*%
%ADD18R,0.7000X0.6000*%
%ADD19R,1.3000X2.8000*%
%ADD20R,6.0000X6.5000*%
%ADD21R,0.6000X0.7000*%
%ADD22R,1.3000X2.0000*%
%ADD23R,0.8000X0.9000*%
%ADD24R,0.9000X0.8000*%

%LPD*%
G36*
X951992Y3662984D02*
G01*
X947013Y3658006D01*
X947013Y3542995D01*
X951992Y3537965D01*
X994003Y3538474D01*
X994003Y3582466D01*
X1039012Y3582466D01*
X1039012Y3537508D01*
X1080008Y3537965D01*
X1084986Y3542995D01*
X1084986Y3658006D01*
X1080008Y3662984D01*
G37*
G36*
X992987Y3447491D02*
G01*
X951992Y3446983D01*
X947013Y3442004D01*
X947013Y3326993D01*
X951992Y3322015D01*
X1080008Y3322015D01*
X1084986Y3326993D01*
X1084986Y3442004D01*
X1080008Y3446983D01*
X1037996Y3446475D01*
X1037996Y3402482D01*
X992987Y3402482D01*
G37*
G36*
X2047087Y1504391D02*
G01*
X2006092Y1503883D01*
X2001113Y1498904D01*
X2001113Y1383893D01*
X2006092Y1378915D01*
X2134108Y1378915D01*
X2139086Y1383893D01*
X2139086Y1498904D01*
X2134108Y1503883D01*
X2092096Y1503426D01*
X2092096Y1459382D01*
X2047087Y1459382D01*
G37*
G36*
X2006092Y1719884D02*
G01*
X2001113Y1714906D01*
X2001113Y1599895D01*
X2006092Y1594916D01*
X2048103Y1595374D01*
X2048103Y1639417D01*
X2093112Y1639417D01*
X2093112Y1594408D01*
X2134108Y1594916D01*
X2139086Y1599895D01*
X2139086Y1714906D01*
X2134108Y1719884D01*
G37*
G36*
X1307287Y3193186D02*
G01*
X1302308Y3188208D01*
X1302816Y3146196D01*
X1346809Y3146196D01*
X1346809Y3101187D01*
X1301800Y3101187D01*
X1302308Y3060192D01*
X1307287Y3055213D01*
X1422298Y3055213D01*
X1427327Y3060192D01*
X1427327Y3188208D01*
X1422298Y3193186D01*
G37*
G36*
X1092301Y3193186D02*
G01*
X1087323Y3188208D01*
X1087323Y3060192D01*
X1092301Y3055213D01*
X1207312Y3055213D01*
X1212291Y3060192D01*
X1211783Y3101187D01*
X1167790Y3101187D01*
X1167790Y3146196D01*
X1212291Y3146196D01*
X1212291Y3188208D01*
X1207312Y3193186D01*
G37*
G36*
X393192Y3205276D02*
G01*
X388213Y3200298D01*
X388213Y3085287D01*
X393192Y3080308D01*
X435203Y3080816D01*
X435203Y3124809D01*
X480212Y3124809D01*
X480212Y3079800D01*
X521208Y3080308D01*
X526186Y3085287D01*
X526186Y3200298D01*
X521208Y3205276D01*
G37*
G36*
X393192Y2990291D02*
G01*
X388213Y2985312D01*
X388213Y2870301D01*
X393192Y2865272D01*
X521208Y2865272D01*
X526186Y2870301D01*
X526186Y2985312D01*
X521208Y2990291D01*
X480212Y2989783D01*
X480212Y2945790D01*
X435203Y2945790D01*
X435203Y2990291D01*
G37*
G36*
X1383487Y2393086D02*
G01*
X1378508Y2388108D01*
X1379016Y2346096D01*
X1423009Y2346096D01*
X1423009Y2301087D01*
X1378000Y2301087D01*
X1378508Y2260092D01*
X1383487Y2255113D01*
X1498498Y2255113D01*
X1503527Y2260092D01*
X1503527Y2388108D01*
X1498498Y2393086D01*
G37*
G36*
X1168501Y2393086D02*
G01*
X1163523Y2388108D01*
X1163523Y2260092D01*
X1168501Y2255113D01*
X1283512Y2255113D01*
X1288491Y2260092D01*
X1287983Y2301087D01*
X1243990Y2301087D01*
X1243990Y2346096D01*
X1288491Y2346096D01*
X1288491Y2388108D01*
X1283512Y2393086D01*
G37*
G36*
X1967687Y2824886D02*
G01*
X1962708Y2819908D01*
X1963216Y2777896D01*
X2007209Y2777896D01*
X2007209Y2732887D01*
X1962200Y2732887D01*
X1962708Y2691892D01*
X1967687Y2686913D01*
X2082698Y2686913D01*
X2087676Y2691892D01*
X2087676Y2819908D01*
X2082698Y2824886D01*
G37*
G36*
X1752701Y2824886D02*
G01*
X1747672Y2819908D01*
X1747672Y2691892D01*
X1752701Y2686913D01*
X1867712Y2686913D01*
X1872691Y2691892D01*
X1872183Y2732887D01*
X1828190Y2732887D01*
X1828190Y2777896D01*
X1872691Y2777896D01*
X1872691Y2819908D01*
X1867712Y2824886D01*
G37*
G36*
X434187Y1555699D02*
G01*
X393192Y1555191D01*
X388213Y1550212D01*
X388213Y1435201D01*
X393192Y1430223D01*
X521208Y1430223D01*
X526186Y1435201D01*
X526186Y1550212D01*
X521208Y1555191D01*
X479196Y1554683D01*
X479196Y1510690D01*
X434187Y1510690D01*
G37*
G36*
X393192Y1770176D02*
G01*
X388213Y1765198D01*
X388213Y1650187D01*
X393192Y1645208D01*
X434187Y1645716D01*
X434187Y1689709D01*
X479196Y1689709D01*
X479196Y1645208D01*
X521208Y1645208D01*
X526186Y1650187D01*
X526186Y1765198D01*
X521208Y1770176D01*
G37*
G36*
X1168501Y2799486D02*
G01*
X1163472Y2794508D01*
X1163472Y2666492D01*
X1168501Y2661513D01*
X1283512Y2661513D01*
X1288491Y2666492D01*
X1287983Y2708503D01*
X1243990Y2708503D01*
X1243990Y2753512D01*
X1288999Y2753512D01*
X1288491Y2794508D01*
X1283512Y2799486D01*
G37*
G36*
X1383487Y2799486D02*
G01*
X1378508Y2794508D01*
X1379016Y2753512D01*
X1423009Y2753512D01*
X1423009Y2708503D01*
X1378508Y2708503D01*
X1378508Y2666492D01*
X1383487Y2661513D01*
X1498498Y2661513D01*
X1503476Y2666492D01*
X1503476Y2794508D01*
X1498498Y2799486D01*
G37*
G36*
X1219301Y1986686D02*
G01*
X1214272Y1981707D01*
X1214272Y1853692D01*
X1219301Y1848713D01*
X1334312Y1848713D01*
X1339291Y1853692D01*
X1338783Y1895703D01*
X1294790Y1895703D01*
X1294790Y1940712D01*
X1339799Y1940712D01*
X1339291Y1981707D01*
X1334312Y1986686D01*
G37*
G36*
X1434287Y1986686D02*
G01*
X1429308Y1981707D01*
X1429816Y1940712D01*
X1473809Y1940712D01*
X1473809Y1895703D01*
X1429308Y1895703D01*
X1429308Y1853692D01*
X1434287Y1848713D01*
X1549298Y1848713D01*
X1554276Y1853692D01*
X1554276Y1981707D01*
X1549298Y1986686D01*
G37*
G36*
X1625092Y1719427D02*
G01*
X1620113Y1714398D01*
X1620113Y1599387D01*
X1625092Y1594408D01*
X1667103Y1594916D01*
X1667103Y1638909D01*
X1712112Y1638909D01*
X1712112Y1593900D01*
X1753107Y1594408D01*
X1758086Y1599387D01*
X1758086Y1714398D01*
X1753107Y1719427D01*
G37*
G36*
X1625092Y1504391D02*
G01*
X1620113Y1499412D01*
X1620113Y1384401D01*
X1625092Y1379423D01*
X1753107Y1379423D01*
X1758086Y1384401D01*
X1758086Y1499412D01*
X1753107Y1504391D01*
X1712112Y1503883D01*
X1712112Y1459890D01*
X1667103Y1459890D01*
X1667103Y1504391D01*
G37*
G36*
X1894687Y1936699D02*
G01*
X1853692Y1936191D01*
X1848713Y1931212D01*
X1848713Y1816201D01*
X1853692Y1811223D01*
X1981707Y1811223D01*
X1986686Y1816201D01*
X1986686Y1931212D01*
X1981707Y1936191D01*
X1939696Y1935683D01*
X1939696Y1891690D01*
X1894687Y1891690D01*
G37*
G36*
X1853692Y2151176D02*
G01*
X1848713Y2146198D01*
X1848713Y2031187D01*
X1853692Y2026208D01*
X1894687Y2026716D01*
X1894687Y2070709D01*
X1939696Y2070709D01*
X1939696Y2026208D01*
X1981707Y2026208D01*
X1986686Y2031187D01*
X1986686Y2146198D01*
X1981707Y2151176D01*
G37*
G36*
X2910687Y1974799D02*
G01*
X2869692Y1974291D01*
X2864713Y1969312D01*
X2864713Y1854301D01*
X2869692Y1849323D01*
X2997708Y1849323D01*
X3002686Y1854301D01*
X3002686Y1969312D01*
X2997708Y1974291D01*
X2955696Y1973783D01*
X2955696Y1929790D01*
X2910687Y1929790D01*
G37*
G36*
X2869692Y2189276D02*
G01*
X2864713Y2184298D01*
X2864713Y2069287D01*
X2869692Y2064308D01*
X2910687Y2064816D01*
X2910687Y2108809D01*
X2955696Y2108809D01*
X2955696Y2064308D01*
X2997708Y2064308D01*
X3002686Y2069287D01*
X3002686Y2184298D01*
X2997708Y2189276D01*
G37*
G36*
X2336901Y1694586D02*
G01*
X2331872Y1689607D01*
X2331872Y1561592D01*
X2336901Y1556613D01*
X2451912Y1556613D01*
X2456891Y1561592D01*
X2456383Y1603603D01*
X2412390Y1603603D01*
X2412390Y1648612D01*
X2457399Y1648612D01*
X2456891Y1689607D01*
X2451912Y1694586D01*
G37*
G36*
X2551887Y1694586D02*
G01*
X2546908Y1689607D01*
X2547416Y1648612D01*
X2591409Y1648612D01*
X2591409Y1603603D01*
X2546908Y1603603D01*
X2546908Y1561592D01*
X2551887Y1556613D01*
X2666898Y1556613D01*
X2671876Y1561592D01*
X2671876Y1689607D01*
X2666898Y1694586D01*
G37*
G36*
X3190087Y2584399D02*
G01*
X3149092Y2583891D01*
X3144113Y2578912D01*
X3144113Y2463901D01*
X3149092Y2458923D01*
X3277108Y2458923D01*
X3282086Y2463901D01*
X3282086Y2578912D01*
X3277108Y2583891D01*
X3235096Y2583383D01*
X3235096Y2539390D01*
X3190087Y2539390D01*
G37*
G36*
X3149092Y2798876D02*
G01*
X3144113Y2793898D01*
X3144113Y2678887D01*
X3149092Y2673908D01*
X3190087Y2674416D01*
X3190087Y2718409D01*
X3235096Y2718409D01*
X3235096Y2673908D01*
X3277108Y2673908D01*
X3282086Y2678887D01*
X3282086Y2793898D01*
X3277108Y2798876D01*
G37*
G36*
X3403701Y2634386D02*
G01*
X3398672Y2629408D01*
X3398672Y2501392D01*
X3403701Y2496413D01*
X3518712Y2496413D01*
X3523691Y2501392D01*
X3523183Y2543403D01*
X3479190Y2543403D01*
X3479190Y2588412D01*
X3524199Y2588412D01*
X3523691Y2629408D01*
X3518712Y2634386D01*
G37*
G36*
X3618687Y2634386D02*
G01*
X3613708Y2629408D01*
X3614216Y2588412D01*
X3658209Y2588412D01*
X3658209Y2543403D01*
X3613708Y2543403D01*
X3613708Y2501392D01*
X3618687Y2496413D01*
X3733698Y2496413D01*
X3738676Y2501392D01*
X3738676Y2629408D01*
X3733698Y2634386D01*
G37*
G36*
X3202787Y3016199D02*
G01*
X3161792Y3015691D01*
X3156813Y3010712D01*
X3156813Y2895701D01*
X3161792Y2890723D01*
X3289808Y2890723D01*
X3294786Y2895701D01*
X3294786Y3010712D01*
X3289808Y3015691D01*
X3247796Y3015183D01*
X3247796Y2971190D01*
X3202787Y2971190D01*
G37*
G36*
X3161792Y3230676D02*
G01*
X3156813Y3225698D01*
X3156813Y3110687D01*
X3161792Y3105708D01*
X3202787Y3106216D01*
X3202787Y3150209D01*
X3247796Y3150209D01*
X3247796Y3105708D01*
X3289808Y3105708D01*
X3294786Y3110687D01*
X3294786Y3225698D01*
X3289808Y3230676D01*
G37*
G36*
X840587Y1555699D02*
G01*
X799592Y1555191D01*
X794613Y1550212D01*
X794613Y1435201D01*
X799592Y1430223D01*
X927608Y1430223D01*
X932586Y1435201D01*
X932586Y1550212D01*
X927608Y1555191D01*
X885596Y1554683D01*
X885596Y1510690D01*
X840587Y1510690D01*
G37*
G36*
X799592Y1770176D02*
G01*
X794613Y1765198D01*
X794613Y1650187D01*
X799592Y1645208D01*
X840587Y1645716D01*
X840587Y1689709D01*
X885596Y1689709D01*
X885596Y1645208D01*
X927608Y1645208D01*
X932586Y1650187D01*
X932586Y1765198D01*
X927608Y1770176D01*
G37*
G36*
X3634587Y946099D02*
G01*
X3593592Y945591D01*
X3588613Y940612D01*
X3588613Y825601D01*
X3593592Y820623D01*
X3721608Y820623D01*
X3726586Y825601D01*
X3726586Y940612D01*
X3721608Y945591D01*
X3679596Y945083D01*
X3679596Y901090D01*
X3634587Y901090D01*
G37*
G36*
X3593592Y1160576D02*
G01*
X3588613Y1155598D01*
X3588613Y1040587D01*
X3593592Y1035608D01*
X3634587Y1036116D01*
X3634587Y1080109D01*
X3679596Y1080109D01*
X3679596Y1035608D01*
X3721608Y1035608D01*
X3726586Y1040587D01*
X3726586Y1155598D01*
X3721608Y1160576D01*
G37*
G36*
X2428087Y1238199D02*
G01*
X2387092Y1237691D01*
X2382113Y1232712D01*
X2382113Y1117701D01*
X2387092Y1112723D01*
X2515108Y1112723D01*
X2520086Y1117701D01*
X2520086Y1232712D01*
X2515108Y1237691D01*
X2473096Y1237183D01*
X2473096Y1193190D01*
X2428087Y1193190D01*
G37*
G36*
X2387092Y1452676D02*
G01*
X2382113Y1447698D01*
X2382113Y1332687D01*
X2387092Y1327708D01*
X2428087Y1328216D01*
X2428087Y1372209D01*
X2473096Y1372209D01*
X2473096Y1327708D01*
X2515108Y1327708D01*
X2520086Y1332687D01*
X2520086Y1447698D01*
X2515108Y1452676D01*
G37*
G36*
X3634587Y488899D02*
G01*
X3593592Y488391D01*
X3588613Y483412D01*
X3588613Y368401D01*
X3593592Y363423D01*
X3721608Y363423D01*
X3726586Y368401D01*
X3726586Y483412D01*
X3721608Y488391D01*
X3679596Y487883D01*
X3679596Y443890D01*
X3634587Y443890D01*
G37*
G36*
X3593592Y703376D02*
G01*
X3588613Y698398D01*
X3588613Y583387D01*
X3593592Y578408D01*
X3634587Y578916D01*
X3634587Y622909D01*
X3679596Y622909D01*
X3679596Y578408D01*
X3721608Y578408D01*
X3726586Y583387D01*
X3726586Y698398D01*
X3721608Y703376D01*
G37*
G36*
X2590901Y957986D02*
G01*
X2585872Y953008D01*
X2585872Y824992D01*
X2590901Y820013D01*
X2705912Y820013D01*
X2710891Y824992D01*
X2710383Y867003D01*
X2666390Y867003D01*
X2666390Y912012D01*
X2711399Y912012D01*
X2710891Y953008D01*
X2705912Y957986D01*
G37*
G36*
X2805887Y957986D02*
G01*
X2800908Y953008D01*
X2801416Y912012D01*
X2845409Y912012D01*
X2845409Y867003D01*
X2800908Y867003D01*
X2800908Y824992D01*
X2805887Y820013D01*
X2920898Y820013D01*
X2925876Y824992D01*
X2925876Y953008D01*
X2920898Y957986D01*
G37*
G36*
X3634587Y3016199D02*
G01*
X3593592Y3015691D01*
X3588613Y3010712D01*
X3588613Y2895701D01*
X3593592Y2890723D01*
X3721608Y2890723D01*
X3726586Y2895701D01*
X3726586Y3010712D01*
X3721608Y3015691D01*
X3679596Y3015183D01*
X3679596Y2971190D01*
X3634587Y2971190D01*
G37*
G36*
X3593592Y3230676D02*
G01*
X3588613Y3225698D01*
X3588613Y3110687D01*
X3593592Y3105708D01*
X3634587Y3106216D01*
X3634587Y3150209D01*
X3679596Y3150209D01*
X3679596Y3105708D01*
X3721608Y3105708D01*
X3726586Y3110687D01*
X3726586Y3225698D01*
X3721608Y3230676D01*
G37*
G36*
X1259687Y1517599D02*
G01*
X1218692Y1517091D01*
X1213713Y1512112D01*
X1213713Y1397101D01*
X1218692Y1392123D01*
X1346708Y1392123D01*
X1351686Y1397101D01*
X1351686Y1512112D01*
X1346708Y1517091D01*
X1304696Y1516583D01*
X1304696Y1472590D01*
X1259687Y1472590D01*
G37*
G36*
X1218692Y1732076D02*
G01*
X1213713Y1727098D01*
X1213713Y1612087D01*
X1218692Y1607108D01*
X1259687Y1607616D01*
X1259687Y1651609D01*
X1304696Y1651609D01*
X1304696Y1607108D01*
X1346708Y1607108D01*
X1351686Y1612087D01*
X1351686Y1727098D01*
X1346708Y1732076D01*
G37*
G36*
X853287Y3003499D02*
G01*
X812292Y3002991D01*
X807313Y2998012D01*
X807313Y2883001D01*
X812292Y2878023D01*
X940308Y2878023D01*
X945286Y2883001D01*
X945286Y2998012D01*
X940308Y3002991D01*
X898296Y3002483D01*
X898296Y2958490D01*
X853287Y2958490D01*
G37*
G36*
X812292Y3217976D02*
G01*
X807313Y3212998D01*
X807313Y3097987D01*
X812292Y3093008D01*
X853287Y3093516D01*
X853287Y3137509D01*
X898296Y3137509D01*
X898296Y3093008D01*
X940308Y3093008D01*
X945286Y3097987D01*
X945286Y3212998D01*
X940308Y3217976D01*
G37*
G36*
X2375001Y3574186D02*
G01*
X2369972Y3569208D01*
X2369972Y3441192D01*
X2375001Y3436213D01*
X2490012Y3436213D01*
X2494991Y3441192D01*
X2494483Y3483203D01*
X2450490Y3483203D01*
X2450490Y3528212D01*
X2495499Y3528212D01*
X2494991Y3569208D01*
X2490012Y3574186D01*
G37*
G36*
X2589987Y3574186D02*
G01*
X2585008Y3569208D01*
X2585516Y3528212D01*
X2629509Y3528212D01*
X2629509Y3483203D01*
X2585008Y3483203D01*
X2585008Y3441192D01*
X2589987Y3436213D01*
X2704998Y3436213D01*
X2709976Y3441192D01*
X2709976Y3569208D01*
X2704998Y3574186D01*
G37*
D10*
G01*
X2997200Y3302000D03*
D11*
G01*
X1460500Y3568700D03*
G01*
X1790700Y3568700D03*
G01*
X2120900Y3568700D03*
D12*
G01*
X2057400Y2374900D03*
G01*
X1638300Y3124200D03*
D13*
G01*
X2946400Y3581400D03*
D11*
G01*
X3632200Y3556000D03*
G01*
X3276600Y3556000D03*
D14*
G01*
X723900Y3581400D03*
G01*
X393700Y3581400D03*
D10*
G01*
X2882894Y457200D03*
D15*
G01*
X609600Y1092504D03*
G01*
X609600Y558495D03*
G01*
X1384300Y1092504D03*
G01*
X1384300Y558495D03*
D16*
G01*
X2076195Y3300399D03*
G01*
X1886204Y3300399D03*
G01*
X1981200Y3100400D03*
D18*
G01*
X1614500Y2495296D03*
G01*
X1614500Y2305304D03*
G01*
X1814499Y2400300D03*
D19*
G01*
X2795397Y2375890D03*
G01*
X2335402Y2375890D03*
D20*
G01*
X2565400Y3034309D03*
D19*
G01*
X3658997Y1397990D03*
G01*
X3199002Y1397990D03*
D20*
G01*
X3429000Y2056409D03*
D21*
G01*
X3054604Y928700D03*
G01*
X3244595Y928700D03*
G01*
X3149600Y1128699D03*
D18*
G01*
X2516195Y641096D03*
G01*
X2516195Y451104D03*
G01*
X2716194Y546100D03*
D14*
G01*
X482600Y2036394D03*
D22*
G01*
X365099Y2586405D03*
G01*
X600100Y2586405D03*
D14*
G01*
X2032000Y499694D03*
D22*
G01*
X1914499Y1049705D03*
G01*
X2149500Y1049705D03*
D23*
G01*
X1022095Y2754299D03*
G01*
X832104Y2754299D03*
G01*
X927100Y2554300D03*
G01*
X870204Y2033600D03*
G01*
X1060195Y2033600D03*
G01*
X965200Y2233599D03*
D24*
G01*
X2135200Y2088896D03*
G01*
X2135200Y1898904D03*
G01*
X2335199Y1993900D03*
G01*
X3300399Y451104D03*
G01*
X3300399Y641096D03*
G01*
X3100400Y546100D03*
D23*
G01*
X2724404Y1271600D03*
G01*
X2914395Y1271600D03*
G01*
X2819400Y1471599D03*
M02*
