G04 Layer: TopSilkscreenLayer*
G04 EasyEDA v6.5.51, 2026-01-23 20:44:13*
G04 9b21f2c40fdd485a9a18e9c23a84d7e9,fbdf34f9d0754eb9a98e5c232fff75f3,10*
G04 Gerber Generator version 0.2*
G04 Scale: 100 percent, Rotated: No, Reflected: No *
G04 Dimensions in millimeters *
G04 leading zeros omitted , absolute positions ,4 integer and 5 decimal *
%FSLAX45Y45*%
%MOMM*%

%ADD10C,0.1030*%
%ADD11C,0.1520*%
%ADD12C,0.1524*%
%ADD13C,0.1270*%
%ADD14C,0.1520*%
%ADD15C,0.2540*%
%ADD16C,0.0144*%

%LPD*%
D10*
X632968Y299212D02*
G01*
X628904Y307339D01*
X620776Y315721D01*
X612647Y319786D01*
X596137Y319786D01*
X588010Y315721D01*
X579628Y307339D01*
X575563Y299212D01*
X571500Y286765D01*
X571500Y266446D01*
X575563Y254000D01*
X579628Y245871D01*
X588010Y237744D01*
X596137Y233426D01*
X612647Y233426D01*
X620776Y237744D01*
X628904Y245871D01*
X632968Y254000D01*
X684784Y319786D02*
G01*
X676655Y315721D01*
X668273Y307339D01*
X664210Y299212D01*
X660145Y286765D01*
X660145Y266446D01*
X664210Y254000D01*
X668273Y245871D01*
X676655Y237744D01*
X684784Y233426D01*
X701294Y233426D01*
X709421Y237744D01*
X717550Y245871D01*
X721613Y254000D01*
X725931Y266446D01*
X725931Y286765D01*
X721613Y299212D01*
X717550Y307339D01*
X709421Y315721D01*
X701294Y319786D01*
X684784Y319786D01*
X814578Y299212D02*
G01*
X810260Y307339D01*
X802131Y315721D01*
X794004Y319786D01*
X777494Y319786D01*
X769365Y315721D01*
X761237Y307339D01*
X756920Y299212D01*
X752855Y286765D01*
X752855Y266446D01*
X756920Y254000D01*
X761237Y245871D01*
X769365Y237744D01*
X777494Y233426D01*
X794004Y233426D01*
X802131Y237744D01*
X810260Y245871D01*
X814578Y254000D01*
X874521Y319786D02*
G01*
X841502Y233426D01*
X874521Y319786D02*
G01*
X907287Y233426D01*
X853947Y262381D02*
G01*
X894842Y262381D01*
X1030478Y319786D02*
G01*
X997457Y233426D01*
X1030478Y319786D02*
G01*
X1063244Y233426D01*
X1009904Y262381D02*
G01*
X1050797Y262381D01*
X1090421Y319786D02*
G01*
X1090421Y233426D01*
X1090421Y233426D02*
G01*
X1139444Y233426D01*
X1166621Y319786D02*
G01*
X1166621Y233426D01*
X1193800Y319786D02*
G01*
X1193800Y233426D01*
X1193800Y319786D02*
G01*
X1251204Y233426D01*
X1251204Y319786D02*
G01*
X1251204Y233426D01*
X1341628Y319786D02*
G01*
X1341628Y233426D01*
X1341628Y319786D02*
G01*
X1378457Y319786D01*
X1390650Y315721D01*
X1394968Y311404D01*
X1399031Y303276D01*
X1399031Y291084D01*
X1394968Y282702D01*
X1390650Y278637D01*
X1378457Y274573D01*
X1341628Y274573D01*
X1425955Y319786D02*
G01*
X1425955Y233426D01*
X1425955Y319786D02*
G01*
X1479550Y319786D01*
X1425955Y278637D02*
G01*
X1458976Y278637D01*
X1425955Y233426D02*
G01*
X1479550Y233426D01*
X1535176Y319786D02*
G01*
X1535176Y233426D01*
X1506473Y319786D02*
G01*
X1563878Y319786D01*
X1591055Y319786D02*
G01*
X1591055Y233426D01*
X1591055Y319786D02*
G01*
X1627886Y319786D01*
X1640331Y315721D01*
X1644395Y311404D01*
X1648460Y303276D01*
X1648460Y295147D01*
X1644395Y286765D01*
X1640331Y282702D01*
X1627886Y278637D01*
X1591055Y278637D01*
X1619757Y278637D02*
G01*
X1648460Y233426D01*
X1675637Y319786D02*
G01*
X1675637Y258063D01*
X1679702Y245871D01*
X1687829Y237744D01*
X1700276Y233426D01*
X1708404Y233426D01*
X1720850Y237744D01*
X1728978Y245871D01*
X1733042Y258063D01*
X1733042Y319786D01*
X1864360Y319786D02*
G01*
X1823465Y262381D01*
X1884934Y262381D01*
X1864360Y319786D02*
G01*
X1864360Y233426D01*
X1920239Y319786D02*
G01*
X1965452Y319786D01*
X1940813Y286765D01*
X1953006Y286765D01*
X1961388Y282702D01*
X1965452Y278637D01*
X1969515Y266446D01*
X1969515Y258063D01*
X1965452Y245871D01*
X1957070Y237744D01*
X1944877Y233426D01*
X1932686Y233426D01*
X1920239Y237744D01*
X1916176Y241807D01*
X1912112Y249936D01*
X2000758Y299212D02*
G01*
X2000758Y303276D01*
X2004822Y311404D01*
X2008886Y315721D01*
X2017013Y319786D01*
X2033524Y319786D01*
X2041652Y315721D01*
X2045970Y311404D01*
X2050034Y303276D01*
X2050034Y295147D01*
X2045970Y286765D01*
X2037588Y274573D01*
X1996693Y233426D01*
X2054097Y233426D01*
X2114041Y319786D02*
G01*
X2081022Y233426D01*
X2114041Y319786D02*
G01*
X2146808Y233426D01*
X2093468Y262381D02*
G01*
X2134615Y262381D01*
X2237231Y319786D02*
G01*
X2237231Y233426D01*
X2237231Y319786D02*
G01*
X2274061Y319786D01*
X2286254Y315721D01*
X2290572Y311404D01*
X2294636Y303276D01*
X2294636Y291084D01*
X2290572Y282702D01*
X2286254Y278637D01*
X2274061Y274573D01*
X2237231Y274573D01*
X2321559Y303276D02*
G01*
X2329941Y307339D01*
X2342134Y319786D01*
X2342134Y233426D01*
X2369311Y319786D02*
G01*
X2369311Y233426D01*
X2369311Y319786D02*
G01*
X2398013Y319786D01*
X2410206Y315721D01*
X2418588Y307339D01*
X2422652Y299212D01*
X2426715Y286765D01*
X2426715Y266446D01*
X2422652Y254000D01*
X2418588Y245871D01*
X2410206Y237744D01*
X2398013Y233426D01*
X2369311Y233426D01*
X2515361Y299212D02*
G01*
X2511297Y307339D01*
X2503170Y315721D01*
X2494788Y319786D01*
X2478531Y319786D01*
X2470150Y315721D01*
X2462022Y307339D01*
X2457958Y299212D01*
X2453893Y286765D01*
X2453893Y266446D01*
X2457958Y254000D01*
X2462022Y245871D01*
X2470150Y237744D01*
X2478531Y233426D01*
X2494788Y233426D01*
X2503170Y237744D01*
X2511297Y245871D01*
X2515361Y254000D01*
X2542540Y319786D02*
G01*
X2542540Y233426D01*
X2542540Y319786D02*
G01*
X2595879Y319786D01*
X2542540Y278637D02*
G01*
X2575306Y278637D01*
X2542540Y233426D02*
G01*
X2595879Y233426D01*
X2690368Y299212D02*
G01*
X2690368Y303276D01*
X2694431Y311404D01*
X2698495Y315721D01*
X2706624Y319786D01*
X2723134Y319786D01*
X2731261Y315721D01*
X2735325Y311404D01*
X2739390Y303276D01*
X2739390Y295147D01*
X2735325Y286765D01*
X2727197Y274573D01*
X2686050Y233426D01*
X2743708Y233426D01*
X2795270Y319786D02*
G01*
X2783077Y315721D01*
X2774695Y303276D01*
X2770631Y282702D01*
X2770631Y270510D01*
X2774695Y249936D01*
X2783077Y237744D01*
X2795270Y233426D01*
X2803652Y233426D01*
X2815843Y237744D01*
X2823972Y249936D01*
X2828290Y270510D01*
X2828290Y282702D01*
X2823972Y303276D01*
X2815843Y315721D01*
X2803652Y319786D01*
X2795270Y319786D01*
X2859277Y299212D02*
G01*
X2859277Y303276D01*
X2863595Y311404D01*
X2867659Y315721D01*
X2875788Y319786D01*
X2892297Y319786D01*
X2900425Y315721D01*
X2904490Y311404D01*
X2908554Y303276D01*
X2908554Y295147D01*
X2904490Y286765D01*
X2896361Y274573D01*
X2855213Y233426D01*
X2912618Y233426D01*
X2989072Y319786D02*
G01*
X2947924Y319786D01*
X2943859Y282702D01*
X2947924Y286765D01*
X2960370Y291084D01*
X2972561Y291084D01*
X2985008Y286765D01*
X2993136Y278637D01*
X2997200Y266446D01*
X2997200Y258063D01*
X2993136Y245871D01*
X2985008Y237744D01*
X2972561Y233426D01*
X2960370Y233426D01*
X2947924Y237744D01*
X2943859Y241807D01*
X2939795Y249936D01*
X3024377Y270510D02*
G01*
X3098291Y270510D01*
X3129534Y299212D02*
G01*
X3129534Y303276D01*
X3133597Y311404D01*
X3137661Y315721D01*
X3145790Y319786D01*
X3162300Y319786D01*
X3170427Y315721D01*
X3174491Y311404D01*
X3178809Y303276D01*
X3178809Y295147D01*
X3174491Y286765D01*
X3166363Y274573D01*
X3125470Y233426D01*
X3182874Y233426D01*
X3234436Y319786D02*
G01*
X3222243Y315721D01*
X3214115Y303276D01*
X3209797Y282702D01*
X3209797Y270510D01*
X3214115Y249936D01*
X3222243Y237744D01*
X3234436Y233426D01*
X3242818Y233426D01*
X3255009Y237744D01*
X3263138Y249936D01*
X3267456Y270510D01*
X3267456Y282702D01*
X3263138Y303276D01*
X3255009Y315721D01*
X3242818Y319786D01*
X3234436Y319786D01*
X3298443Y299212D02*
G01*
X3298443Y303276D01*
X3302761Y311404D01*
X3306825Y315721D01*
X3314954Y319786D01*
X3331463Y319786D01*
X3339591Y315721D01*
X3343656Y311404D01*
X3347720Y303276D01*
X3347720Y295147D01*
X3343656Y286765D01*
X3335527Y274573D01*
X3294379Y233426D01*
X3352038Y233426D01*
X3428238Y307339D02*
G01*
X3424174Y315721D01*
X3411727Y319786D01*
X3403600Y319786D01*
X3391408Y315721D01*
X3383025Y303276D01*
X3378961Y282702D01*
X3378961Y262381D01*
X3383025Y245871D01*
X3391408Y237744D01*
X3403600Y233426D01*
X3407663Y233426D01*
X3420109Y237744D01*
X3428238Y245871D01*
X3432302Y258063D01*
X3432302Y262381D01*
X3428238Y274573D01*
X3420109Y282702D01*
X3407663Y286765D01*
X3403600Y286765D01*
X3391408Y282702D01*
X3383025Y274573D01*
X3378961Y262381D01*
D11*
X482597Y3417300D02*
G01*
X482597Y3308334D01*
X516887Y3417300D02*
G01*
X516887Y3308334D01*
X516887Y3417300D02*
G01*
X589531Y3308334D01*
X589531Y3417300D02*
G01*
X589531Y3308334D01*
X3345931Y3404613D02*
G01*
X3335517Y3399533D01*
X3325103Y3389119D01*
X3319769Y3378705D01*
X3314689Y3362957D01*
X3314689Y3337049D01*
X3319769Y3321555D01*
X3325103Y3311141D01*
X3335517Y3300727D01*
X3345931Y3295647D01*
X3366759Y3295647D01*
X3376919Y3300727D01*
X3387333Y3311141D01*
X3392667Y3321555D01*
X3397747Y3337049D01*
X3397747Y3362957D01*
X3392667Y3378705D01*
X3387333Y3389119D01*
X3376919Y3399533D01*
X3366759Y3404613D01*
X3345931Y3404613D01*
X3432037Y3404613D02*
G01*
X3432037Y3326635D01*
X3437371Y3311141D01*
X3447785Y3300727D01*
X3463279Y3295647D01*
X3473693Y3295647D01*
X3489187Y3300727D01*
X3499601Y3311141D01*
X3504935Y3326635D01*
X3504935Y3404613D01*
X3575547Y3404613D02*
G01*
X3575547Y3295647D01*
X3539225Y3404613D02*
G01*
X3611869Y3404613D01*
D12*
X814567Y3404113D02*
G01*
X809233Y3414527D01*
X798819Y3424941D01*
X788659Y3430021D01*
X767831Y3430021D01*
X757417Y3424941D01*
X747003Y3414527D01*
X741669Y3404113D01*
X736589Y3388365D01*
X736589Y3362457D01*
X741669Y3346963D01*
X747003Y3336549D01*
X757417Y3326135D01*
X767831Y3321055D01*
X788659Y3321055D01*
X798819Y3326135D01*
X809233Y3336549D01*
X814567Y3346963D01*
X848857Y3409193D02*
G01*
X859271Y3414527D01*
X874765Y3430021D01*
X874765Y3321055D01*
X278892Y1208275D02*
G01*
X268478Y1202941D01*
X258063Y1192527D01*
X252984Y1182367D01*
X252984Y1161539D01*
X258063Y1151125D01*
X268478Y1140711D01*
X278892Y1135377D01*
X294639Y1130297D01*
X320547Y1130297D01*
X336042Y1135377D01*
X346455Y1140711D01*
X356870Y1151125D01*
X361950Y1161539D01*
X361950Y1182367D01*
X356870Y1192527D01*
X346455Y1202941D01*
X336042Y1208275D01*
X252984Y1252979D02*
G01*
X252984Y1310129D01*
X294639Y1278887D01*
X294639Y1294381D01*
X299720Y1304795D01*
X304800Y1310129D01*
X320547Y1315209D01*
X330962Y1315209D01*
X346455Y1310129D01*
X356870Y1299715D01*
X361950Y1283967D01*
X361950Y1268473D01*
X356870Y1252979D01*
X351789Y1247645D01*
X341376Y1242565D01*
X1040886Y1246372D02*
G01*
X1030472Y1241038D01*
X1020058Y1230624D01*
X1014978Y1220464D01*
X1014978Y1199636D01*
X1020058Y1189222D01*
X1030472Y1178808D01*
X1040886Y1173474D01*
X1056634Y1168394D01*
X1082542Y1168394D01*
X1098036Y1173474D01*
X1108450Y1178808D01*
X1118864Y1189222D01*
X1123944Y1199636D01*
X1123944Y1220464D01*
X1118864Y1230624D01*
X1108450Y1241038D01*
X1098036Y1246372D01*
X1014978Y1332478D02*
G01*
X1087622Y1280662D01*
X1087622Y1358640D01*
X1014978Y1332478D02*
G01*
X1123944Y1332478D01*
X1866386Y1589275D02*
G01*
X1855972Y1583941D01*
X1845558Y1573527D01*
X1840478Y1563367D01*
X1840478Y1542539D01*
X1845558Y1532125D01*
X1855972Y1521711D01*
X1866386Y1516377D01*
X1882134Y1511297D01*
X1908042Y1511297D01*
X1923536Y1516377D01*
X1933950Y1521711D01*
X1944364Y1532125D01*
X1949444Y1542539D01*
X1949444Y1563367D01*
X1944364Y1573527D01*
X1933950Y1583941D01*
X1923536Y1589275D01*
X1840478Y1685795D02*
G01*
X1840478Y1633979D01*
X1887214Y1628645D01*
X1882134Y1633979D01*
X1876800Y1649473D01*
X1876800Y1664967D01*
X1882134Y1680715D01*
X1892294Y1691129D01*
X1908042Y1696209D01*
X1918456Y1696209D01*
X1933950Y1691129D01*
X1944364Y1680715D01*
X1949444Y1664967D01*
X1949444Y1649473D01*
X1944364Y1633979D01*
X1939284Y1628645D01*
X1928870Y1623565D01*
X2056378Y2946400D02*
G01*
X2165344Y2946400D01*
X2056378Y2946400D02*
G01*
X2056378Y2982721D01*
X2061458Y2998470D01*
X2071872Y3008629D01*
X2082286Y3013963D01*
X2098034Y3019044D01*
X2123942Y3019044D01*
X2139436Y3013963D01*
X2149850Y3008629D01*
X2160264Y2998470D01*
X2165344Y2982721D01*
X2165344Y2946400D01*
X2077206Y3053334D02*
G01*
X2071872Y3063747D01*
X2056378Y3079496D01*
X2165344Y3079496D01*
X1860047Y2617215D02*
G01*
X1849633Y2612136D01*
X1839219Y2601721D01*
X1833885Y2591307D01*
X1828805Y2575560D01*
X1828805Y2549652D01*
X1833885Y2534157D01*
X1839219Y2523744D01*
X1849633Y2513329D01*
X1860047Y2508250D01*
X1880875Y2508250D01*
X1891035Y2513329D01*
X1901449Y2523744D01*
X1906783Y2534157D01*
X1911863Y2549652D01*
X1911863Y2575560D01*
X1906783Y2591307D01*
X1901449Y2601721D01*
X1891035Y2612136D01*
X1880875Y2617215D01*
X1860047Y2617215D01*
X1875541Y2528823D02*
G01*
X1906783Y2497836D01*
X2019051Y2617215D02*
G01*
X1966981Y2508250D01*
X1946153Y2617215D02*
G01*
X2019051Y2617215D01*
X2494894Y2426766D02*
G01*
X2484480Y2421432D01*
X2474066Y2411272D01*
X2468986Y2400858D01*
X2463906Y2385110D01*
X2463906Y2359202D01*
X2468986Y2343708D01*
X2474066Y2333294D01*
X2484480Y2322880D01*
X2494894Y2317546D01*
X2515722Y2317546D01*
X2526136Y2322880D01*
X2536550Y2333294D01*
X2541630Y2343708D01*
X2546964Y2359202D01*
X2546964Y2385110D01*
X2541630Y2400858D01*
X2536550Y2411272D01*
X2526136Y2421432D01*
X2515722Y2426766D01*
X2494894Y2426766D01*
X2510642Y2338374D02*
G01*
X2541630Y2307132D01*
X2607162Y2426766D02*
G01*
X2591668Y2421432D01*
X2586334Y2411272D01*
X2586334Y2400858D01*
X2591668Y2390444D01*
X2602082Y2385110D01*
X2622656Y2380030D01*
X2638404Y2374696D01*
X2648818Y2364282D01*
X2653898Y2354122D01*
X2653898Y2338374D01*
X2648818Y2327960D01*
X2643484Y2322880D01*
X2627990Y2317546D01*
X2607162Y2317546D01*
X2591668Y2322880D01*
X2586334Y2327960D01*
X2581254Y2338374D01*
X2581254Y2354122D01*
X2586334Y2364282D01*
X2596748Y2374696D01*
X2612496Y2380030D01*
X2633070Y2385110D01*
X2643484Y2390444D01*
X2648818Y2400858D01*
X2648818Y2411272D01*
X2643484Y2421432D01*
X2627990Y2426766D01*
X2607162Y2426766D01*
X3371194Y1461566D02*
G01*
X3360780Y1456232D01*
X3350366Y1446072D01*
X3345286Y1435658D01*
X3340206Y1419910D01*
X3340206Y1394002D01*
X3345286Y1378508D01*
X3350366Y1368094D01*
X3360780Y1357680D01*
X3371194Y1352346D01*
X3392022Y1352346D01*
X3402436Y1357680D01*
X3412850Y1368094D01*
X3417930Y1378508D01*
X3423264Y1394002D01*
X3423264Y1419910D01*
X3417930Y1435658D01*
X3412850Y1446072D01*
X3402436Y1456232D01*
X3392022Y1461566D01*
X3371194Y1461566D01*
X3386942Y1373174D02*
G01*
X3417930Y1341932D01*
X3525118Y1425244D02*
G01*
X3519784Y1409496D01*
X3509370Y1399082D01*
X3493876Y1394002D01*
X3488796Y1394002D01*
X3473048Y1399082D01*
X3462634Y1409496D01*
X3457554Y1425244D01*
X3457554Y1430324D01*
X3462634Y1446072D01*
X3473048Y1456232D01*
X3488796Y1461566D01*
X3493876Y1461566D01*
X3509370Y1456232D01*
X3519784Y1446072D01*
X3525118Y1425244D01*
X3525118Y1399082D01*
X3519784Y1373174D01*
X3509370Y1357680D01*
X3493876Y1352346D01*
X3483462Y1352346D01*
X3467968Y1357680D01*
X3462634Y1368094D01*
X3142574Y877315D02*
G01*
X3132160Y872236D01*
X3122000Y861821D01*
X3116666Y851407D01*
X3111586Y835660D01*
X3111586Y809752D01*
X3116666Y794257D01*
X3122000Y783844D01*
X3132160Y773429D01*
X3142574Y768350D01*
X3163402Y768350D01*
X3173816Y773429D01*
X3184230Y783844D01*
X3189310Y794257D01*
X3194644Y809752D01*
X3194644Y835660D01*
X3189310Y851407D01*
X3184230Y861821D01*
X3173816Y872236D01*
X3163402Y877315D01*
X3142574Y877315D01*
X3158322Y788923D02*
G01*
X3189310Y757936D01*
X3228934Y856487D02*
G01*
X3239348Y861821D01*
X3254842Y877315D01*
X3254842Y768350D01*
X3320374Y877315D02*
G01*
X3304880Y872236D01*
X3294466Y856487D01*
X3289132Y830579D01*
X3289132Y815086D01*
X3294466Y788923D01*
X3304880Y773429D01*
X3320374Y768350D01*
X3330788Y768350D01*
X3346282Y773429D01*
X3356696Y788923D01*
X3362030Y815086D01*
X3362030Y830579D01*
X3356696Y856487D01*
X3346282Y872236D01*
X3330788Y877315D01*
X3320374Y877315D01*
X2335778Y653542D02*
G01*
X2340858Y643128D01*
X2351272Y632713D01*
X2361686Y627379D01*
X2377434Y622300D01*
X2403342Y622300D01*
X2418836Y627379D01*
X2429250Y632713D01*
X2439664Y643128D01*
X2444744Y653542D01*
X2444744Y674370D01*
X2439664Y684529D01*
X2429250Y694944D01*
X2418836Y700278D01*
X2403342Y705357D01*
X2377434Y705357D01*
X2361686Y700278D01*
X2351272Y694944D01*
X2340858Y684529D01*
X2335778Y674370D01*
X2335778Y653542D01*
X2424170Y669036D02*
G01*
X2455158Y700278D01*
X2356606Y739647D02*
G01*
X2351272Y750062D01*
X2335778Y765810D01*
X2444744Y765810D01*
X2356606Y800100D02*
G01*
X2351272Y810260D01*
X2335778Y826007D01*
X2444744Y826007D01*
X1181100Y3366515D02*
G01*
X1181100Y3257550D01*
X1181100Y3366515D02*
G01*
X1227836Y3366515D01*
X1243329Y3361436D01*
X1248663Y3356102D01*
X1253744Y3345687D01*
X1253744Y3335273D01*
X1248663Y3324860D01*
X1243329Y3319779D01*
X1227836Y3314700D01*
X1181100Y3314700D01*
X1217421Y3314700D02*
G01*
X1253744Y3257550D01*
X1350518Y3366515D02*
G01*
X1298447Y3366515D01*
X1293368Y3319779D01*
X1298447Y3324860D01*
X1314195Y3330194D01*
X1329689Y3330194D01*
X1345184Y3324860D01*
X1355597Y3314700D01*
X1360931Y3298952D01*
X1360931Y3288537D01*
X1355597Y3273044D01*
X1345184Y3262629D01*
X1329689Y3257550D01*
X1314195Y3257550D01*
X1298447Y3262629D01*
X1293368Y3267710D01*
X1288034Y3278123D01*
X227584Y2971794D02*
G01*
X336550Y2971794D01*
X227584Y2971794D02*
G01*
X227584Y3018530D01*
X232663Y3034024D01*
X237997Y3039358D01*
X248412Y3044438D01*
X258826Y3044438D01*
X269239Y3039358D01*
X274320Y3034024D01*
X279400Y3018530D01*
X279400Y2971794D01*
X279400Y3008116D02*
G01*
X336550Y3044438D01*
X243078Y3141212D02*
G01*
X232663Y3135878D01*
X227584Y3120384D01*
X227584Y3109970D01*
X232663Y3094476D01*
X248412Y3084062D01*
X274320Y3078728D01*
X300228Y3078728D01*
X321055Y3084062D01*
X331470Y3094476D01*
X336550Y3109970D01*
X336550Y3115304D01*
X331470Y3130798D01*
X321055Y3141212D01*
X305562Y3146292D01*
X300228Y3146292D01*
X284734Y3141212D01*
X274320Y3130798D01*
X269239Y3115304D01*
X269239Y3109970D01*
X274320Y3094476D01*
X284734Y3084062D01*
X300228Y3078728D01*
X1270000Y2566415D02*
G01*
X1270000Y2457450D01*
X1270000Y2566415D02*
G01*
X1316736Y2566415D01*
X1332229Y2561336D01*
X1337563Y2556002D01*
X1342644Y2545587D01*
X1342644Y2535173D01*
X1337563Y2524760D01*
X1332229Y2519679D01*
X1316736Y2514600D01*
X1270000Y2514600D01*
X1306321Y2514600D02*
G01*
X1342644Y2457450D01*
X1449831Y2566415D02*
G01*
X1397762Y2457450D01*
X1376934Y2566415D02*
G01*
X1449831Y2566415D01*
X1752594Y2998210D02*
G01*
X1752594Y2889244D01*
X1752594Y2998210D02*
G01*
X1799330Y2998210D01*
X1814824Y2993130D01*
X1820158Y2987796D01*
X1825238Y2977382D01*
X1825238Y2966968D01*
X1820158Y2956554D01*
X1814824Y2951474D01*
X1799330Y2946394D01*
X1752594Y2946394D01*
X1788916Y2946394D02*
G01*
X1825238Y2889244D01*
X1885690Y2998210D02*
G01*
X1869942Y2993130D01*
X1864862Y2982716D01*
X1864862Y2972302D01*
X1869942Y2961888D01*
X1880356Y2956554D01*
X1901184Y2951474D01*
X1916678Y2946394D01*
X1927092Y2935980D01*
X1932426Y2925566D01*
X1932426Y2909818D01*
X1927092Y2899404D01*
X1922012Y2894324D01*
X1906264Y2889244D01*
X1885690Y2889244D01*
X1869942Y2894324D01*
X1864862Y2899404D01*
X1859528Y2909818D01*
X1859528Y2925566D01*
X1864862Y2935980D01*
X1875276Y2946394D01*
X1890770Y2951474D01*
X1911598Y2956554D01*
X1922012Y2961888D01*
X1927092Y2972302D01*
X1927092Y2982716D01*
X1922012Y2993130D01*
X1906264Y2998210D01*
X1885690Y2998210D01*
X240284Y1854200D02*
G01*
X349250Y1854200D01*
X240284Y1854200D02*
G01*
X240284Y1900936D01*
X245363Y1916429D01*
X250697Y1921763D01*
X261112Y1926844D01*
X271526Y1926844D01*
X281939Y1921763D01*
X287020Y1916429D01*
X292100Y1900936D01*
X292100Y1854200D01*
X292100Y1890521D02*
G01*
X349250Y1926844D01*
X276605Y2028697D02*
G01*
X292100Y2023618D01*
X302513Y2013204D01*
X307847Y1997710D01*
X307847Y1992376D01*
X302513Y1976881D01*
X292100Y1966468D01*
X276605Y1961134D01*
X271526Y1961134D01*
X255778Y1966468D01*
X245363Y1976881D01*
X240284Y1992376D01*
X240284Y1997710D01*
X245363Y2013204D01*
X255778Y2023618D01*
X276605Y2028697D01*
X302513Y2028697D01*
X328676Y2023618D01*
X344170Y2013204D01*
X349250Y1997710D01*
X349250Y1987296D01*
X344170Y1971547D01*
X333755Y1966468D01*
X227584Y1498610D02*
G01*
X336550Y1498610D01*
X227584Y1498610D02*
G01*
X227584Y1545346D01*
X232663Y1560840D01*
X237997Y1566174D01*
X248412Y1571254D01*
X258826Y1571254D01*
X269239Y1566174D01*
X274320Y1560840D01*
X279400Y1545346D01*
X279400Y1498610D01*
X279400Y1534932D02*
G01*
X336550Y1571254D01*
X248412Y1605544D02*
G01*
X243078Y1615958D01*
X227584Y1631706D01*
X336550Y1631706D01*
X227584Y1696984D02*
G01*
X232663Y1681490D01*
X248412Y1671076D01*
X274320Y1665996D01*
X289813Y1665996D01*
X315976Y1671076D01*
X331470Y1681490D01*
X336550Y1696984D01*
X336550Y1707398D01*
X331470Y1723146D01*
X315976Y1733560D01*
X289813Y1738640D01*
X274320Y1738640D01*
X248412Y1733560D01*
X232663Y1723146D01*
X227584Y1707398D01*
X227584Y1696984D01*
X1295397Y2972810D02*
G01*
X1295397Y2863844D01*
X1295397Y2972810D02*
G01*
X1342133Y2972810D01*
X1357627Y2967730D01*
X1362961Y2962396D01*
X1368041Y2951982D01*
X1368041Y2941568D01*
X1362961Y2931154D01*
X1357627Y2926074D01*
X1342133Y2920994D01*
X1295397Y2920994D01*
X1331719Y2920994D02*
G01*
X1368041Y2863844D01*
X1402331Y2951982D02*
G01*
X1412745Y2957316D01*
X1428493Y2972810D01*
X1428493Y2863844D01*
X1462783Y2951982D02*
G01*
X1473197Y2957316D01*
X1488691Y2972810D01*
X1488691Y2863844D01*
X1270000Y2160015D02*
G01*
X1270000Y2051050D01*
X1270000Y2160015D02*
G01*
X1316736Y2160015D01*
X1332229Y2154936D01*
X1337563Y2149602D01*
X1342644Y2139187D01*
X1342644Y2128773D01*
X1337563Y2118360D01*
X1332229Y2113279D01*
X1316736Y2108200D01*
X1270000Y2108200D01*
X1306321Y2108200D02*
G01*
X1342644Y2051050D01*
X1376934Y2139187D02*
G01*
X1387347Y2144521D01*
X1403095Y2160015D01*
X1403095Y2051050D01*
X1442465Y2134107D02*
G01*
X1442465Y2139187D01*
X1447800Y2149602D01*
X1452879Y2154936D01*
X1463294Y2160015D01*
X1484121Y2160015D01*
X1494536Y2154936D01*
X1499615Y2149602D01*
X1504950Y2139187D01*
X1504950Y2128773D01*
X1499615Y2118360D01*
X1489202Y2102865D01*
X1437386Y2051050D01*
X1510029Y2051050D01*
X1446784Y1447800D02*
G01*
X1555750Y1447800D01*
X1446784Y1447800D02*
G01*
X1446784Y1494536D01*
X1451863Y1510029D01*
X1457197Y1515363D01*
X1467612Y1520444D01*
X1478026Y1520444D01*
X1488439Y1515363D01*
X1493520Y1510029D01*
X1498600Y1494536D01*
X1498600Y1447800D01*
X1498600Y1484121D02*
G01*
X1555750Y1520444D01*
X1467612Y1554734D02*
G01*
X1462278Y1565147D01*
X1446784Y1580896D01*
X1555750Y1580896D01*
X1446784Y1625600D02*
G01*
X1446784Y1682750D01*
X1488439Y1651507D01*
X1488439Y1667002D01*
X1493520Y1677415D01*
X1498600Y1682750D01*
X1514347Y1687829D01*
X1524762Y1687829D01*
X1540255Y1682750D01*
X1550670Y1672336D01*
X1555750Y1656587D01*
X1555750Y1641094D01*
X1550670Y1625600D01*
X1545589Y1620265D01*
X1535176Y1615186D01*
X1714494Y1296410D02*
G01*
X1714494Y1187444D01*
X1714494Y1296410D02*
G01*
X1761230Y1296410D01*
X1776724Y1291330D01*
X1782058Y1285996D01*
X1787138Y1275582D01*
X1787138Y1265168D01*
X1782058Y1254754D01*
X1776724Y1249674D01*
X1761230Y1244594D01*
X1714494Y1244594D01*
X1750816Y1244594D02*
G01*
X1787138Y1187444D01*
X1821428Y1275582D02*
G01*
X1831842Y1280916D01*
X1847590Y1296410D01*
X1847590Y1187444D01*
X1933696Y1296410D02*
G01*
X1881880Y1223766D01*
X1959604Y1223766D01*
X1933696Y1296410D02*
G01*
X1933696Y1187444D01*
X1675381Y1943094D02*
G01*
X1784347Y1943094D01*
X1675381Y1943094D02*
G01*
X1675381Y1989830D01*
X1680461Y2005324D01*
X1685795Y2010658D01*
X1696209Y2015738D01*
X1706623Y2015738D01*
X1717037Y2010658D01*
X1722117Y2005324D01*
X1727197Y1989830D01*
X1727197Y1943094D01*
X1727197Y1979416D02*
G01*
X1784347Y2015738D01*
X1696209Y2050028D02*
G01*
X1690875Y2060442D01*
X1675381Y2076190D01*
X1784347Y2076190D01*
X1675381Y2172710D02*
G01*
X1675381Y2120894D01*
X1722117Y2115560D01*
X1717037Y2120894D01*
X1711703Y2136388D01*
X1711703Y2151882D01*
X1717037Y2167630D01*
X1727197Y2178044D01*
X1742945Y2183124D01*
X1753359Y2183124D01*
X1768853Y2178044D01*
X1779267Y2167630D01*
X1784347Y2151882D01*
X1784347Y2136388D01*
X1779267Y2120894D01*
X1774187Y2115560D01*
X1763773Y2110480D01*
X2704078Y1816107D02*
G01*
X2813044Y1816107D01*
X2704078Y1816107D02*
G01*
X2704078Y1862843D01*
X2709158Y1878337D01*
X2714492Y1883671D01*
X2724906Y1888751D01*
X2735320Y1888751D01*
X2745734Y1883671D01*
X2750814Y1878337D01*
X2755894Y1862843D01*
X2755894Y1816107D01*
X2755894Y1852429D02*
G01*
X2813044Y1888751D01*
X2729986Y1928375D02*
G01*
X2724906Y1928375D01*
X2714492Y1933455D01*
X2709158Y1938789D01*
X2704078Y1949203D01*
X2704078Y1969777D01*
X2709158Y1980191D01*
X2714492Y1985525D01*
X2724906Y1990605D01*
X2735320Y1990605D01*
X2745734Y1985525D01*
X2761228Y1975111D01*
X2813044Y1923041D01*
X2813044Y1995939D01*
X2719572Y2092459D02*
G01*
X2709158Y2087379D01*
X2704078Y2071631D01*
X2704078Y2061217D01*
X2709158Y2045723D01*
X2724906Y2035309D01*
X2750814Y2030229D01*
X2776722Y2030229D01*
X2797550Y2035309D01*
X2807964Y2045723D01*
X2813044Y2061217D01*
X2813044Y2066551D01*
X2807964Y2082045D01*
X2797550Y2092459D01*
X2782056Y2097793D01*
X2776722Y2097793D01*
X2761228Y2092459D01*
X2750814Y2082045D01*
X2745734Y2066551D01*
X2745734Y2061217D01*
X2750814Y2045723D01*
X2761228Y2035309D01*
X2776722Y2030229D01*
X2362200Y1867910D02*
G01*
X2362200Y1758944D01*
X2362200Y1867910D02*
G01*
X2408936Y1867910D01*
X2424429Y1862830D01*
X2429763Y1857496D01*
X2434843Y1847082D01*
X2434843Y1836668D01*
X2429763Y1826254D01*
X2424429Y1821174D01*
X2408936Y1816094D01*
X2362200Y1816094D01*
X2398522Y1816094D02*
G01*
X2434843Y1758944D01*
X2474468Y1842002D02*
G01*
X2474468Y1847082D01*
X2479547Y1857496D01*
X2484881Y1862830D01*
X2495295Y1867910D01*
X2515870Y1867910D01*
X2526284Y1862830D01*
X2531618Y1857496D01*
X2536697Y1847082D01*
X2536697Y1836668D01*
X2531618Y1826254D01*
X2521204Y1810760D01*
X2469134Y1758944D01*
X2542031Y1758944D01*
X2648965Y1867910D02*
G01*
X2597150Y1758944D01*
X2576322Y1867910D02*
G01*
X2648965Y1867910D01*
X2983478Y2514605D02*
G01*
X3092444Y2514605D01*
X2983478Y2514605D02*
G01*
X2983478Y2561341D01*
X2988558Y2576835D01*
X2993892Y2582169D01*
X3004306Y2587249D01*
X3014720Y2587249D01*
X3025134Y2582169D01*
X3030214Y2576835D01*
X3035294Y2561341D01*
X3035294Y2514605D01*
X3035294Y2550927D02*
G01*
X3092444Y2587249D01*
X3009386Y2626873D02*
G01*
X3004306Y2626873D01*
X2993892Y2631953D01*
X2988558Y2637287D01*
X2983478Y2647701D01*
X2983478Y2668275D01*
X2988558Y2678689D01*
X2993892Y2684023D01*
X3004306Y2689103D01*
X3014720Y2689103D01*
X3025134Y2684023D01*
X3040628Y2673609D01*
X3092444Y2621539D01*
X3092444Y2694437D01*
X2983478Y2754635D02*
G01*
X2988558Y2739141D01*
X2998972Y2733807D01*
X3009386Y2733807D01*
X3019800Y2739141D01*
X3025134Y2749555D01*
X3030214Y2770129D01*
X3035294Y2785877D01*
X3045708Y2796291D01*
X3056122Y2801371D01*
X3071870Y2801371D01*
X3082284Y2796291D01*
X3087364Y2790957D01*
X3092444Y2775463D01*
X3092444Y2754635D01*
X3087364Y2739141D01*
X3082284Y2733807D01*
X3071870Y2728727D01*
X3056122Y2728727D01*
X3045708Y2733807D01*
X3035294Y2744221D01*
X3030214Y2759715D01*
X3025134Y2780543D01*
X3019800Y2790957D01*
X3009386Y2796291D01*
X2998972Y2796291D01*
X2988558Y2790957D01*
X2983478Y2775463D01*
X2983478Y2754635D01*
X3441710Y2807715D02*
G01*
X3441710Y2698750D01*
X3441710Y2807715D02*
G01*
X3488446Y2807715D01*
X3503940Y2802636D01*
X3509274Y2797302D01*
X3514354Y2786887D01*
X3514354Y2776473D01*
X3509274Y2766060D01*
X3503940Y2760979D01*
X3488446Y2755900D01*
X3441710Y2755900D01*
X3478032Y2755900D02*
G01*
X3514354Y2698750D01*
X3553978Y2781807D02*
G01*
X3553978Y2786887D01*
X3559058Y2797302D01*
X3564392Y2802636D01*
X3574806Y2807715D01*
X3595380Y2807715D01*
X3605794Y2802636D01*
X3611128Y2797302D01*
X3616208Y2786887D01*
X3616208Y2776473D01*
X3611128Y2766060D01*
X3600714Y2750565D01*
X3548644Y2698750D01*
X3621542Y2698750D01*
X3723396Y2771394D02*
G01*
X3718062Y2755900D01*
X3707648Y2745486D01*
X3692154Y2740152D01*
X3686820Y2740152D01*
X3671326Y2745486D01*
X3660912Y2755900D01*
X3655832Y2771394D01*
X3655832Y2776473D01*
X3660912Y2792221D01*
X3671326Y2802636D01*
X3686820Y2807715D01*
X3692154Y2807715D01*
X3707648Y2802636D01*
X3718062Y2792221D01*
X3723396Y2771394D01*
X3723396Y2745486D01*
X3718062Y2719323D01*
X3707648Y2703829D01*
X3692154Y2698750D01*
X3681740Y2698750D01*
X3666246Y2703829D01*
X3660912Y2714244D01*
X2996178Y2895594D02*
G01*
X3105144Y2895594D01*
X2996178Y2895594D02*
G01*
X2996178Y2942330D01*
X3001258Y2957824D01*
X3006592Y2963158D01*
X3017006Y2968238D01*
X3027420Y2968238D01*
X3037834Y2963158D01*
X3042914Y2957824D01*
X3047994Y2942330D01*
X3047994Y2895594D01*
X3047994Y2931916D02*
G01*
X3105144Y2968238D01*
X2996178Y3012942D02*
G01*
X2996178Y3070092D01*
X3037834Y3039104D01*
X3037834Y3054598D01*
X3042914Y3065012D01*
X3047994Y3070092D01*
X3063742Y3075426D01*
X3074156Y3075426D01*
X3089650Y3070092D01*
X3100064Y3059678D01*
X3105144Y3044184D01*
X3105144Y3028690D01*
X3100064Y3012942D01*
X3094984Y3007862D01*
X3084570Y3002528D01*
X2996178Y3140704D02*
G01*
X3001258Y3125210D01*
X3017006Y3114796D01*
X3042914Y3109716D01*
X3058408Y3109716D01*
X3084570Y3114796D01*
X3100064Y3125210D01*
X3105144Y3140704D01*
X3105144Y3151118D01*
X3100064Y3166866D01*
X3084570Y3177280D01*
X3058408Y3182360D01*
X3042914Y3182360D01*
X3017006Y3177280D01*
X3001258Y3166866D01*
X2996178Y3151118D01*
X2996178Y3140704D01*
X633984Y1485910D02*
G01*
X742950Y1485910D01*
X633984Y1485910D02*
G01*
X633984Y1532646D01*
X639063Y1548140D01*
X644397Y1553474D01*
X654812Y1558554D01*
X665226Y1558554D01*
X675639Y1553474D01*
X680720Y1548140D01*
X685800Y1532646D01*
X685800Y1485910D01*
X685800Y1522232D02*
G01*
X742950Y1558554D01*
X633984Y1603258D02*
G01*
X633984Y1660408D01*
X675639Y1629420D01*
X675639Y1644914D01*
X680720Y1655328D01*
X685800Y1660408D01*
X701547Y1665742D01*
X711962Y1665742D01*
X727455Y1660408D01*
X737870Y1649994D01*
X742950Y1634500D01*
X742950Y1619006D01*
X737870Y1603258D01*
X732789Y1598178D01*
X722376Y1592844D01*
X654812Y1700032D02*
G01*
X649478Y1710446D01*
X633984Y1725940D01*
X742950Y1725940D01*
X3415276Y876307D02*
G01*
X3524242Y876307D01*
X3415276Y876307D02*
G01*
X3415276Y923043D01*
X3420356Y938537D01*
X3425690Y943871D01*
X3436104Y948951D01*
X3446518Y948951D01*
X3456932Y943871D01*
X3462012Y938537D01*
X3467092Y923043D01*
X3467092Y876307D01*
X3467092Y912629D02*
G01*
X3524242Y948951D01*
X3415276Y993655D02*
G01*
X3415276Y1050805D01*
X3456932Y1019817D01*
X3456932Y1035311D01*
X3462012Y1045725D01*
X3467092Y1050805D01*
X3482840Y1056139D01*
X3493254Y1056139D01*
X3508748Y1050805D01*
X3519162Y1040391D01*
X3524242Y1024897D01*
X3524242Y1009403D01*
X3519162Y993655D01*
X3514082Y988575D01*
X3503668Y983241D01*
X3441184Y1095509D02*
G01*
X3436104Y1095509D01*
X3425690Y1100843D01*
X3420356Y1105923D01*
X3415276Y1116337D01*
X3415276Y1137165D01*
X3420356Y1147579D01*
X3425690Y1152659D01*
X3436104Y1157993D01*
X3446518Y1157993D01*
X3456932Y1152659D01*
X3472426Y1142245D01*
X3524242Y1090429D01*
X3524242Y1163073D01*
X2221484Y1181110D02*
G01*
X2330450Y1181110D01*
X2221484Y1181110D02*
G01*
X2221484Y1227846D01*
X2226563Y1243340D01*
X2231897Y1248674D01*
X2242311Y1253754D01*
X2252725Y1253754D01*
X2263140Y1248674D01*
X2268220Y1243340D01*
X2273300Y1227846D01*
X2273300Y1181110D01*
X2273300Y1217432D02*
G01*
X2330450Y1253754D01*
X2221484Y1298458D02*
G01*
X2221484Y1355608D01*
X2263140Y1324620D01*
X2263140Y1340114D01*
X2268220Y1350528D01*
X2273300Y1355608D01*
X2289047Y1360942D01*
X2299461Y1360942D01*
X2314956Y1355608D01*
X2325370Y1345194D01*
X2330450Y1329700D01*
X2330450Y1314206D01*
X2325370Y1298458D01*
X2320290Y1293378D01*
X2309875Y1288044D01*
X2221484Y1405646D02*
G01*
X2221484Y1462796D01*
X2263140Y1431554D01*
X2263140Y1447048D01*
X2268220Y1457462D01*
X2273300Y1462796D01*
X2289047Y1467876D01*
X2299461Y1467876D01*
X2314956Y1462796D01*
X2325370Y1452382D01*
X2330450Y1436634D01*
X2330450Y1421140D01*
X2325370Y1405646D01*
X2320290Y1400312D01*
X2309875Y1395232D01*
X3415284Y393710D02*
G01*
X3524250Y393710D01*
X3415284Y393710D02*
G01*
X3415284Y440446D01*
X3420363Y455940D01*
X3425697Y461274D01*
X3436111Y466354D01*
X3446525Y466354D01*
X3456940Y461274D01*
X3462020Y455940D01*
X3467100Y440446D01*
X3467100Y393710D01*
X3467100Y430032D02*
G01*
X3524250Y466354D01*
X3415284Y511058D02*
G01*
X3415284Y568208D01*
X3456940Y537220D01*
X3456940Y552714D01*
X3462020Y563128D01*
X3467100Y568208D01*
X3482847Y573542D01*
X3493261Y573542D01*
X3508756Y568208D01*
X3519170Y557794D01*
X3524250Y542300D01*
X3524250Y526806D01*
X3519170Y511058D01*
X3514090Y505978D01*
X3503675Y500644D01*
X3415284Y659648D02*
G01*
X3487927Y607832D01*
X3487927Y685810D01*
X3415284Y659648D02*
G01*
X3524250Y659648D01*
X2616210Y1131315D02*
G01*
X2616210Y1022350D01*
X2616210Y1131315D02*
G01*
X2662946Y1131315D01*
X2678440Y1126236D01*
X2683774Y1120902D01*
X2688854Y1110487D01*
X2688854Y1100073D01*
X2683774Y1089660D01*
X2678440Y1084579D01*
X2662946Y1079500D01*
X2616210Y1079500D01*
X2652532Y1079500D02*
G01*
X2688854Y1022350D01*
X2733558Y1131315D02*
G01*
X2790708Y1131315D01*
X2759720Y1089660D01*
X2775214Y1089660D01*
X2785628Y1084579D01*
X2790708Y1079500D01*
X2796042Y1063752D01*
X2796042Y1053337D01*
X2790708Y1037844D01*
X2780294Y1027429D01*
X2764800Y1022350D01*
X2749306Y1022350D01*
X2733558Y1027429D01*
X2728478Y1032510D01*
X2723144Y1042923D01*
X2892562Y1131315D02*
G01*
X2840746Y1131315D01*
X2835412Y1084579D01*
X2840746Y1089660D01*
X2856240Y1094994D01*
X2871734Y1094994D01*
X2887482Y1089660D01*
X2897896Y1079500D01*
X2902976Y1063752D01*
X2902976Y1053337D01*
X2897896Y1037844D01*
X2887482Y1027429D01*
X2871734Y1022350D01*
X2856240Y1022350D01*
X2840746Y1027429D01*
X2835412Y1032510D01*
X2830332Y1042923D01*
X3415284Y2933700D02*
G01*
X3524250Y2933700D01*
X3415284Y2933700D02*
G01*
X3415284Y2980436D01*
X3420363Y2995929D01*
X3425697Y3001263D01*
X3436111Y3006344D01*
X3446525Y3006344D01*
X3456940Y3001263D01*
X3462020Y2995929D01*
X3467100Y2980436D01*
X3467100Y2933700D01*
X3467100Y2970021D02*
G01*
X3524250Y3006344D01*
X3415284Y3051047D02*
G01*
X3415284Y3108197D01*
X3456940Y3077210D01*
X3456940Y3092704D01*
X3462020Y3103118D01*
X3467100Y3108197D01*
X3482847Y3113531D01*
X3493261Y3113531D01*
X3508756Y3108197D01*
X3519170Y3097784D01*
X3524250Y3082289D01*
X3524250Y3066796D01*
X3519170Y3051047D01*
X3514090Y3045968D01*
X3503675Y3040634D01*
X3430777Y3210052D02*
G01*
X3420363Y3204971D01*
X3415284Y3189223D01*
X3415284Y3178810D01*
X3420363Y3163315D01*
X3436111Y3152902D01*
X3462020Y3147821D01*
X3487927Y3147821D01*
X3508756Y3152902D01*
X3519170Y3163315D01*
X3524250Y3178810D01*
X3524250Y3184144D01*
X3519170Y3199637D01*
X3508756Y3210052D01*
X3493261Y3215386D01*
X3487927Y3215386D01*
X3472434Y3210052D01*
X3462020Y3199637D01*
X3456940Y3184144D01*
X3456940Y3178810D01*
X3462020Y3163315D01*
X3472434Y3152902D01*
X3487927Y3147821D01*
X1053078Y1511305D02*
G01*
X1162044Y1511305D01*
X1053078Y1511305D02*
G01*
X1053078Y1558041D01*
X1058158Y1573535D01*
X1063492Y1578869D01*
X1073906Y1583949D01*
X1084320Y1583949D01*
X1094734Y1578869D01*
X1099814Y1573535D01*
X1104894Y1558041D01*
X1104894Y1511305D01*
X1104894Y1547627D02*
G01*
X1162044Y1583949D01*
X1053078Y1628653D02*
G01*
X1053078Y1685803D01*
X1094734Y1654815D01*
X1094734Y1670309D01*
X1099814Y1680723D01*
X1104894Y1685803D01*
X1120642Y1691137D01*
X1131056Y1691137D01*
X1146550Y1685803D01*
X1156964Y1675389D01*
X1162044Y1659895D01*
X1162044Y1644401D01*
X1156964Y1628653D01*
X1151884Y1623573D01*
X1141470Y1618239D01*
X1053078Y1798071D02*
G01*
X1162044Y1746255D01*
X1053078Y1725427D02*
G01*
X1053078Y1798071D01*
X633984Y2921000D02*
G01*
X742950Y2921000D01*
X633984Y2921000D02*
G01*
X633984Y2967736D01*
X639063Y2983229D01*
X644397Y2988563D01*
X654812Y2993644D01*
X665226Y2993644D01*
X675639Y2988563D01*
X680720Y2983229D01*
X685800Y2967736D01*
X685800Y2921000D01*
X685800Y2957321D02*
G01*
X742950Y2993644D01*
X633984Y3038347D02*
G01*
X633984Y3095497D01*
X675639Y3064510D01*
X675639Y3080004D01*
X680720Y3090418D01*
X685800Y3095497D01*
X701547Y3100831D01*
X711962Y3100831D01*
X727455Y3095497D01*
X737870Y3085084D01*
X742950Y3069589D01*
X742950Y3054096D01*
X737870Y3038347D01*
X732789Y3033268D01*
X722376Y3027934D01*
X633984Y3161029D02*
G01*
X639063Y3145536D01*
X649478Y3140202D01*
X659892Y3140202D01*
X670305Y3145536D01*
X675639Y3155950D01*
X680720Y3176523D01*
X685800Y3192271D01*
X696213Y3202686D01*
X706628Y3207765D01*
X722376Y3207765D01*
X732789Y3202686D01*
X737870Y3197352D01*
X742950Y3181857D01*
X742950Y3161029D01*
X737870Y3145536D01*
X732789Y3140202D01*
X722376Y3135121D01*
X706628Y3135121D01*
X696213Y3140202D01*
X685800Y3150615D01*
X680720Y3166110D01*
X675639Y3186937D01*
X670305Y3197352D01*
X659892Y3202686D01*
X649478Y3202686D01*
X639063Y3197352D01*
X633984Y3181857D01*
X633984Y3161029D01*
X2387594Y3747508D02*
G01*
X2387594Y3638542D01*
X2387594Y3747508D02*
G01*
X2434330Y3747508D01*
X2449824Y3742428D01*
X2455158Y3737094D01*
X2460238Y3726680D01*
X2460238Y3716266D01*
X2455158Y3705852D01*
X2449824Y3700772D01*
X2434330Y3695692D01*
X2387594Y3695692D01*
X2423916Y3695692D02*
G01*
X2460238Y3638542D01*
X2546598Y3747508D02*
G01*
X2494528Y3674864D01*
X2572506Y3674864D01*
X2546598Y3747508D02*
G01*
X2546598Y3638542D01*
X2638038Y3747508D02*
G01*
X2622544Y3742428D01*
X2612130Y3726680D01*
X2606796Y3700772D01*
X2606796Y3685278D01*
X2612130Y3659116D01*
X2622544Y3643622D01*
X2638038Y3638542D01*
X2648452Y3638542D01*
X2663946Y3643622D01*
X2674360Y3659116D01*
X2679694Y3685278D01*
X2679694Y3700772D01*
X2674360Y3726680D01*
X2663946Y3742428D01*
X2648452Y3747508D01*
X2638038Y3747508D01*
X844036Y2464815D02*
G01*
X833622Y2459736D01*
X823208Y2449321D01*
X817874Y2438907D01*
X812794Y2423160D01*
X812794Y2397252D01*
X817874Y2381757D01*
X823208Y2371344D01*
X833622Y2360929D01*
X844036Y2355850D01*
X864864Y2355850D01*
X875024Y2360929D01*
X885438Y2371344D01*
X890772Y2381757D01*
X895852Y2397252D01*
X895852Y2423160D01*
X890772Y2438907D01*
X885438Y2449321D01*
X875024Y2459736D01*
X864864Y2464815D01*
X844036Y2464815D01*
X859530Y2376423D02*
G01*
X890772Y2345436D01*
X930142Y2443987D02*
G01*
X940556Y2449321D01*
X956304Y2464815D01*
X956304Y2355850D01*
X995674Y2438907D02*
G01*
X995674Y2443987D01*
X1000754Y2454402D01*
X1006088Y2459736D01*
X1016502Y2464815D01*
X1037330Y2464815D01*
X1047744Y2459736D01*
X1052824Y2454402D01*
X1057904Y2443987D01*
X1057904Y2433573D01*
X1052824Y2423160D01*
X1042410Y2407665D01*
X990594Y2355850D01*
X1063238Y2355850D01*
X818634Y1956813D02*
G01*
X808220Y1951733D01*
X797806Y1941319D01*
X792472Y1930905D01*
X787392Y1915157D01*
X787392Y1889249D01*
X792472Y1873755D01*
X797806Y1863341D01*
X808220Y1852927D01*
X818634Y1847847D01*
X839462Y1847847D01*
X849622Y1852927D01*
X860036Y1863341D01*
X865370Y1873755D01*
X870450Y1889249D01*
X870450Y1915157D01*
X865370Y1930905D01*
X860036Y1941319D01*
X849622Y1951733D01*
X839462Y1956813D01*
X818634Y1956813D01*
X834128Y1868421D02*
G01*
X865370Y1837433D01*
X904740Y1935985D02*
G01*
X915154Y1941319D01*
X930902Y1956813D01*
X930902Y1847847D01*
X975352Y1956813D02*
G01*
X1032502Y1956813D01*
X1001514Y1915157D01*
X1017008Y1915157D01*
X1027422Y1910077D01*
X1032502Y1904997D01*
X1037836Y1889249D01*
X1037836Y1878835D01*
X1032502Y1863341D01*
X1022342Y1852927D01*
X1006594Y1847847D01*
X991100Y1847847D01*
X975352Y1852927D01*
X970272Y1858007D01*
X965192Y1868421D01*
X2393436Y2172715D02*
G01*
X2383022Y2167636D01*
X2372608Y2157221D01*
X2367274Y2146807D01*
X2362194Y2131060D01*
X2362194Y2105152D01*
X2367274Y2089657D01*
X2372608Y2079244D01*
X2383022Y2068829D01*
X2393436Y2063750D01*
X2414264Y2063750D01*
X2424424Y2068829D01*
X2434838Y2079244D01*
X2440172Y2089657D01*
X2445252Y2105152D01*
X2445252Y2131060D01*
X2440172Y2146807D01*
X2434838Y2157221D01*
X2424424Y2167636D01*
X2414264Y2172715D01*
X2393436Y2172715D01*
X2408930Y2084323D02*
G01*
X2440172Y2053336D01*
X2479542Y2151887D02*
G01*
X2489956Y2157221D01*
X2505704Y2172715D01*
X2505704Y2063750D01*
X2591810Y2172715D02*
G01*
X2539994Y2100071D01*
X2617718Y2100071D01*
X2591810Y2172715D02*
G01*
X2591810Y2063750D01*
X2863331Y737615D02*
G01*
X2852917Y732536D01*
X2842503Y722121D01*
X2837169Y711707D01*
X2832089Y695960D01*
X2832089Y670052D01*
X2837169Y654557D01*
X2842503Y644144D01*
X2852917Y633729D01*
X2863331Y628650D01*
X2884159Y628650D01*
X2894319Y633729D01*
X2904733Y644144D01*
X2910067Y654557D01*
X2915147Y670052D01*
X2915147Y695960D01*
X2910067Y711707D01*
X2904733Y722121D01*
X2894319Y732536D01*
X2884159Y737615D01*
X2863331Y737615D01*
X2878825Y649223D02*
G01*
X2910067Y618236D01*
X2949437Y716787D02*
G01*
X2959851Y722121D01*
X2975599Y737615D01*
X2975599Y628650D01*
X3072119Y737615D02*
G01*
X3020049Y737615D01*
X3014969Y690879D01*
X3020049Y695960D01*
X3035797Y701294D01*
X3051291Y701294D01*
X3067039Y695960D01*
X3077199Y685800D01*
X3082533Y670052D01*
X3082533Y659637D01*
X3077199Y644144D01*
X3067039Y633729D01*
X3051291Y628650D01*
X3035797Y628650D01*
X3020049Y633729D01*
X3014969Y638810D01*
X3009889Y649223D01*
X2932684Y1529836D02*
G01*
X2937763Y1519422D01*
X2948177Y1509008D01*
X2958591Y1503674D01*
X2974340Y1498594D01*
X3000247Y1498594D01*
X3015741Y1503674D01*
X3026156Y1509008D01*
X3036570Y1519422D01*
X3041650Y1529836D01*
X3041650Y1550664D01*
X3036570Y1560824D01*
X3026156Y1571238D01*
X3015741Y1576572D01*
X3000247Y1581652D01*
X2974340Y1581652D01*
X2958591Y1576572D01*
X2948177Y1571238D01*
X2937763Y1560824D01*
X2932684Y1550664D01*
X2932684Y1529836D01*
X3021075Y1545330D02*
G01*
X3052063Y1576572D01*
X2953511Y1615942D02*
G01*
X2948177Y1626356D01*
X2932684Y1642104D01*
X3041650Y1642104D01*
X2948177Y1738624D02*
G01*
X2937763Y1733544D01*
X2932684Y1717796D01*
X2932684Y1707382D01*
X2937763Y1691888D01*
X2953511Y1681474D01*
X2979420Y1676394D01*
X3005327Y1676394D01*
X3026156Y1681474D01*
X3036570Y1691888D01*
X3041650Y1707382D01*
X3041650Y1712716D01*
X3036570Y1728210D01*
X3026156Y1738624D01*
X3010661Y1743704D01*
X3005327Y1743704D01*
X2989834Y1738624D01*
X2979420Y1728210D01*
X2974340Y1712716D01*
X2974340Y1707382D01*
X2979420Y1691888D01*
X2989834Y1681474D01*
X3005327Y1676394D01*
G36*
X447903Y594512D02*
G01*
X447903Y515315D01*
X467715Y515315D01*
X467715Y594512D01*
G37*
G36*
X447903Y1135684D02*
G01*
X447903Y1056487D01*
X467715Y1056487D01*
X467715Y1135684D01*
G37*
G36*
X391820Y1106017D02*
G01*
X391820Y1086205D01*
X523798Y1086205D01*
X523798Y1106017D01*
G37*
G36*
X1222603Y594512D02*
G01*
X1222603Y515315D01*
X1242415Y515315D01*
X1242415Y594512D01*
G37*
G36*
X1222603Y1135684D02*
G01*
X1222603Y1056487D01*
X1242415Y1056487D01*
X1242415Y1135684D01*
G37*
G36*
X1166520Y1106017D02*
G01*
X1166520Y1086205D01*
X1298498Y1086205D01*
X1298498Y1106017D01*
G37*
X1106357Y3311372D02*
G01*
X1106357Y3452373D01*
X925636Y3452373D02*
G01*
X925636Y3311372D01*
X940876Y3296132D02*
G01*
X1091117Y3296132D01*
X1106357Y3673612D02*
G01*
X1106357Y3532611D01*
X925636Y3532611D02*
G01*
X925636Y3673612D01*
X940876Y3688852D02*
G01*
X1091117Y3688852D01*
X535673Y489938D02*
G01*
X272034Y487934D01*
X272034Y1023620D01*
X411479Y1163065D01*
X541020Y1161729D01*
X680369Y488551D02*
G01*
X947216Y487883D01*
X947216Y1023503D01*
X807603Y1163116D01*
X678179Y1163116D01*
X1310373Y489938D02*
G01*
X1046734Y487934D01*
X1046734Y1023620D01*
X1186179Y1163065D01*
X1315720Y1161729D01*
X1455069Y488551D02*
G01*
X1721916Y487883D01*
X1721916Y1023503D01*
X1582303Y1163116D01*
X1452879Y1163116D01*
X1979739Y1730519D02*
G01*
X1979739Y1589519D01*
X2160460Y1589519D02*
G01*
X2160460Y1730519D01*
X2145220Y1745759D02*
G01*
X1994979Y1745759D01*
X1979739Y1368280D02*
G01*
X1979739Y1509280D01*
X2160460Y1509280D02*
G01*
X2160460Y1368280D01*
X2145220Y1353040D02*
G01*
X1994979Y1353040D01*
X1828579Y3273021D02*
G01*
X1828579Y3127778D01*
X1931741Y3127778D01*
X2133820Y3273021D02*
G01*
X2133820Y3127778D01*
X2030658Y3127778D01*
X1935660Y3273021D02*
G01*
X2026739Y3273021D01*
D13*
X1623999Y2258537D02*
G01*
X1623999Y2241301D01*
X1801799Y2241301D01*
X1801799Y2353536D01*
X1623999Y2448537D02*
G01*
X1623999Y2352065D01*
X1801799Y2447063D02*
G01*
X1801799Y2558801D01*
X1623999Y2558801D01*
X1623999Y2542065D01*
D14*
X2895406Y3122107D02*
G01*
X2895406Y2582108D01*
X2235408Y2582108D01*
X2235408Y3122107D01*
X3759006Y2144207D02*
G01*
X3759006Y1604208D01*
X3099008Y1604208D01*
X3099008Y2144207D01*
D13*
X3291362Y938199D02*
G01*
X3308598Y938199D01*
X3308598Y1115999D01*
X3196363Y1115999D01*
X3101362Y938199D02*
G01*
X3197834Y938199D01*
X3102836Y1115999D02*
G01*
X2991098Y1115999D01*
X2991098Y938199D01*
X3007834Y938199D01*
X2525694Y404337D02*
G01*
X2525694Y387101D01*
X2703494Y387101D01*
X2703494Y499336D01*
X2525694Y594337D02*
G01*
X2525694Y497865D01*
X2703494Y592863D02*
G01*
X2703494Y704601D01*
X2525694Y704601D01*
X2525694Y687865D01*
D12*
X1209680Y3215909D02*
G01*
X1081186Y3215909D01*
X1081186Y3032490D01*
X1209680Y3032490D01*
X1304919Y3215909D02*
G01*
X1433413Y3215909D01*
X1433413Y3032490D01*
X1304919Y3032490D01*
X365490Y2987675D02*
G01*
X365490Y2859181D01*
X548909Y2859181D01*
X548909Y2987675D01*
X365490Y3082914D02*
G01*
X365490Y3211408D01*
X548909Y3211408D01*
X548909Y3082914D01*
X1285880Y2415809D02*
G01*
X1157386Y2415809D01*
X1157386Y2232390D01*
X1285880Y2232390D01*
X1381119Y2415809D02*
G01*
X1509613Y2415809D01*
X1509613Y2232390D01*
X1381119Y2232390D01*
X1870075Y2847604D02*
G01*
X1741581Y2847604D01*
X1741581Y2664185D01*
X1870075Y2664185D01*
X1965314Y2847604D02*
G01*
X2093808Y2847604D01*
X2093808Y2664185D01*
X1965314Y2664185D01*
D15*
X278470Y2537899D02*
G01*
X259097Y2537899D01*
X513494Y2537899D02*
G01*
X454700Y2537899D01*
X709096Y2537899D02*
G01*
X689719Y2537899D01*
X259097Y2387899D02*
G01*
X309097Y2387899D01*
X309097Y2212896D01*
X259097Y2212896D01*
X709096Y2212896D02*
G01*
X659096Y2212896D01*
X659096Y2387899D01*
X709096Y2387899D01*
X484093Y2387899D02*
G01*
X484093Y2237897D01*
X709096Y2537899D02*
G01*
X709096Y2087892D01*
X259097Y2537899D02*
G01*
X259097Y2087892D01*
X510994Y2537899D02*
G01*
X457200Y2537899D01*
X259097Y2087892D02*
G01*
X360982Y2087892D01*
X607212Y2087892D02*
G01*
X709096Y2087892D01*
D12*
X548909Y1647819D02*
G01*
X548909Y1776313D01*
X365490Y1776313D01*
X365490Y1647819D01*
X548909Y1552580D02*
G01*
X548909Y1424086D01*
X365490Y1424086D01*
X365490Y1552580D01*
X1381119Y2638790D02*
G01*
X1509613Y2638790D01*
X1509613Y2822209D01*
X1381119Y2822209D01*
X1285880Y2638790D02*
G01*
X1157386Y2638790D01*
X1157386Y2822209D01*
X1285880Y2822209D01*
X1431919Y1825990D02*
G01*
X1560413Y1825990D01*
X1560413Y2009409D01*
X1431919Y2009409D01*
X1336680Y1825990D02*
G01*
X1208186Y1825990D01*
X1208186Y2009409D01*
X1336680Y2009409D01*
X1597390Y1501780D02*
G01*
X1597390Y1373286D01*
X1780809Y1373286D01*
X1780809Y1501780D01*
X1597390Y1597019D02*
G01*
X1597390Y1725513D01*
X1780809Y1725513D01*
X1780809Y1597019D01*
D15*
X1827870Y1001199D02*
G01*
X1808497Y1001199D01*
X2062894Y1001199D02*
G01*
X2004100Y1001199D01*
X2258496Y1001199D02*
G01*
X2239119Y1001199D01*
X1808497Y851199D02*
G01*
X1858497Y851199D01*
X1858497Y676196D01*
X1808497Y676196D01*
X2258496Y676196D02*
G01*
X2208496Y676196D01*
X2208496Y851199D01*
X2258496Y851199D01*
X2033493Y851199D02*
G01*
X2033493Y701197D01*
X2258496Y1001199D02*
G01*
X2258496Y551192D01*
X1808497Y1001199D02*
G01*
X1808497Y551192D01*
X2060394Y1001199D02*
G01*
X2006600Y1001199D01*
X1808497Y551192D02*
G01*
X1910382Y551192D01*
X2156612Y551192D02*
G01*
X2258496Y551192D01*
D12*
X2009409Y2028819D02*
G01*
X2009409Y2157313D01*
X1825990Y2157313D01*
X1825990Y2028819D01*
X2009409Y1933580D02*
G01*
X2009409Y1805086D01*
X1825990Y1805086D01*
X1825990Y1933580D01*
X3025409Y2066919D02*
G01*
X3025409Y2195413D01*
X2841990Y2195413D01*
X2841990Y2066919D01*
X3025409Y1971680D02*
G01*
X3025409Y1843186D01*
X2841990Y1843186D01*
X2841990Y1971680D01*
X2549519Y1533890D02*
G01*
X2678013Y1533890D01*
X2678013Y1717309D01*
X2549519Y1717309D01*
X2454280Y1533890D02*
G01*
X2325786Y1533890D01*
X2325786Y1717309D01*
X2454280Y1717309D01*
X3304809Y2676519D02*
G01*
X3304809Y2805013D01*
X3121390Y2805013D01*
X3121390Y2676519D01*
X3304809Y2581280D02*
G01*
X3304809Y2452786D01*
X3121390Y2452786D01*
X3121390Y2581280D01*
X3616319Y2473690D02*
G01*
X3744813Y2473690D01*
X3744813Y2657109D01*
X3616319Y2657109D01*
X3521080Y2473690D02*
G01*
X3392586Y2473690D01*
X3392586Y2657109D01*
X3521080Y2657109D01*
X3317509Y3108319D02*
G01*
X3317509Y3236813D01*
X3134090Y3236813D01*
X3134090Y3108319D01*
X3317509Y3013080D02*
G01*
X3317509Y2884586D01*
X3134090Y2884586D01*
X3134090Y3013080D01*
X955309Y1647819D02*
G01*
X955309Y1776313D01*
X771890Y1776313D01*
X771890Y1647819D01*
X955309Y1552580D02*
G01*
X955309Y1424086D01*
X771890Y1424086D01*
X771890Y1552580D01*
X3749309Y1038219D02*
G01*
X3749309Y1166713D01*
X3565890Y1166713D01*
X3565890Y1038219D01*
X3749309Y942980D02*
G01*
X3749309Y814486D01*
X3565890Y814486D01*
X3565890Y942980D01*
X2542809Y1330319D02*
G01*
X2542809Y1458813D01*
X2359390Y1458813D01*
X2359390Y1330319D01*
X2542809Y1235080D02*
G01*
X2542809Y1106586D01*
X2359390Y1106586D01*
X2359390Y1235080D01*
X3749309Y581019D02*
G01*
X3749309Y709513D01*
X3565890Y709513D01*
X3565890Y581019D01*
X3749309Y485780D02*
G01*
X3749309Y357286D01*
X3565890Y357286D01*
X3565890Y485780D01*
X2803519Y797290D02*
G01*
X2932013Y797290D01*
X2932013Y980709D01*
X2803519Y980709D01*
X2708280Y797290D02*
G01*
X2579786Y797290D01*
X2579786Y980709D01*
X2708280Y980709D01*
X3749309Y3108319D02*
G01*
X3749309Y3236813D01*
X3565890Y3236813D01*
X3565890Y3108319D01*
X3749309Y3013080D02*
G01*
X3749309Y2884586D01*
X3565890Y2884586D01*
X3565890Y3013080D01*
X1374409Y1609719D02*
G01*
X1374409Y1738213D01*
X1190990Y1738213D01*
X1190990Y1609719D01*
X1374409Y1514480D02*
G01*
X1374409Y1385986D01*
X1190990Y1385986D01*
X1190990Y1514480D01*
X968009Y3095619D02*
G01*
X968009Y3224113D01*
X784590Y3224113D01*
X784590Y3095619D01*
X968009Y3000380D02*
G01*
X968009Y2871886D01*
X784590Y2871886D01*
X784590Y3000380D01*
X2587619Y3413490D02*
G01*
X2716113Y3413490D01*
X2716113Y3596909D01*
X2587619Y3596909D01*
X2492380Y3413490D02*
G01*
X2363886Y3413490D01*
X2363886Y3596909D01*
X2492380Y3596909D01*
D13*
X775337Y2728902D02*
G01*
X774700Y2728902D01*
X774700Y2576502D01*
X870336Y2576502D01*
X965337Y2728902D02*
G01*
X888865Y2728902D01*
X1079500Y2728902D02*
G01*
X1078864Y2728902D01*
X1079500Y2576502D02*
G01*
X1079500Y2728902D01*
X983863Y2576502D02*
G01*
X1079500Y2576502D01*
X1116962Y2058997D02*
G01*
X1117600Y2058997D01*
X1117600Y2211397D01*
X1021963Y2211397D01*
X926962Y2058997D02*
G01*
X1003434Y2058997D01*
X812800Y2058997D02*
G01*
X813435Y2058997D01*
X812800Y2211397D02*
G01*
X812800Y2058997D01*
X908436Y2211397D02*
G01*
X812800Y2211397D01*
X2160597Y1842137D02*
G01*
X2160597Y1841500D01*
X2312997Y1841500D01*
X2312997Y1937136D01*
X2160597Y2032137D02*
G01*
X2160597Y1955665D01*
X2160597Y2146300D02*
G01*
X2160597Y2145664D01*
X2312997Y2146300D02*
G01*
X2160597Y2146300D01*
X2312997Y2050663D02*
G01*
X2312997Y2146300D01*
X3287699Y697862D02*
G01*
X3287699Y711200D01*
X3122599Y711200D01*
X3122599Y602863D01*
X3287699Y507865D02*
G01*
X3287699Y584334D01*
X3122599Y489336D02*
G01*
X3122599Y381000D01*
X3287699Y381000D01*
X3287699Y394335D01*
X2971162Y1284300D02*
G01*
X2984500Y1284300D01*
X2984500Y1449400D01*
X2876163Y1449400D01*
X2781165Y1284300D02*
G01*
X2857634Y1284300D01*
X2762636Y1449400D02*
G01*
X2654300Y1449400D01*
X2654300Y1284300D01*
X2667634Y1284300D01*
D12*
G75*
G01*
X925637Y3311373D02*
G03*
X940877Y3296133I15240J0D01*
G75*
G01*
X1091118Y3296133D02*
G03*
X1106358Y3311373I0J15240D01*
G75*
G01*
X925637Y3673612D02*
G02*
X940877Y3688852I15240J0D01*
G75*
G01*
X1091118Y3688852D02*
G02*
X1106358Y3673612I0J-15240D01*
G75*
G01*
X2160460Y1730520D02*
G03*
X2145221Y1745760I-15240J0D01*
G75*
G01*
X1994979Y1745760D02*
G03*
X1979740Y1730520I1J-15240D01*
G75*
G01*
X2160460Y1368280D02*
G02*
X2145221Y1353040I-15240J0D01*
G75*
G01*
X1994979Y1353040D02*
G02*
X1979740Y1368280I1J15240D01*
D15*
G75*
G01*
X484096Y2233800D02*
G03*
X482826Y2233800I-635J79055D01*
G75*
G01*
X2033496Y697100D02*
G03*
X2032226Y697100I-635J79055D01*
M02*
